<?xml version="1.0" standalone="no"?>
<!DOCTYPE svg PUBLIC "-//W3C//DTD SVG 20010904//EN"
 "http://www.w3.org/TR/2001/REC-SVG-20010904/DTD/svg10.dtd">
<svg version="1.0" xmlns="http://www.w3.org/2000/svg"
 width="800.000000pt" height="800.000000pt" viewBox="0 0 800.000000 800.000000"
 preserveAspectRatio="xMidYMid meet">

<g transform="translate(0.000000,800.000000) scale(0.100000,-0.100000)"
fill="#000000" stroke="none">
<path d="M0 7990 c0 -7 129 -10 383 -10 210 0 434 -2 497 -5 63 -2 1229 -7
2590 -10 3000 -6 3555 -11 3572 -33 12 -13 -70 -14 -752 -9 -421 4 -1836 9
-3145 12 -1309 3 -2441 8 -2515 11 -217 10 -630 12 -630 3 0 -4 57 -10 128
-13 70 -3 1659 -12 3531 -20 2343 -10 3407 -18 3414 -25 6 -6 8 -13 6 -16 -3
-3 -957 -1 -2120 5 -1163 5 -2742 11 -3509 13 -767 2 -1407 7 -1422 11 -22 7
-28 5 -28 -8 0 -15 106 -16 1228 -16 675 -1 1277 -3 1337 -5 61 -3 1019 -9
2130 -15 2460 -12 2417 -11 2423 -29 4 -11 -163 -12 -1034 -6 -3223 20 -6084
28 -6084 17 0 -9 474 -12 3825 -26 2392 -10 3328 -20 3333 -34 3 -10 -224 -12
-1175 -11 -648 1 -1182 5 -1188 9 -17 12 -4795 23 -4795 11 0 -8 202 -11 663
-12 364 -1 1402 -5 2307 -10 905 -5 2220 -9 2923 -9 1250 -1 1327 -3 1327 -31
0 -15 -36 -19 -79 -10 -47 10 -7129 36 -7139 26 -3 -3 -3 -7 0 -10 3 -3 1575
-12 3494 -21 1919 -8 3550 -16 3626 -17 120 -2 161 -8 147 -21 -2 -2 -1637 2
-3634 10 -1996 7 -3631 11 -3634 8 -2 -2 -2 -7 2 -10 3 -3 1643 -12 3644 -19
2001 -8 3646 -17 3656 -20 9 -4 17 -11 17 -16 0 -9 -3588 -3 -3950 6 -313 8
-3370 11 -3370 3 0 -4 44 -7 98 -7 379 2 7242 -32 7260 -36 119 -29 -89 -29
-3188 -11 -756 5 -1490 8 -1630 7 -140 0 -769 -1 -1397 -1 -675 0 -1143 -4
-1143 -9 0 -5 590 -11 1440 -13 1043 -2 1442 -6 1450 -14 16 -16 -569 -31
-598 -15 -27 14 -2292 16 -2292 2 0 -6 424 -12 1093 -16 1140 -6 1729 -15
1712 -27 -12 -8 -428 -8 -1837 -1 -569 2 -968 1 -968 -5 0 -5 498 -12 1188
-15 1239 -7 1614 -14 1552 -29 -19 -5 -644 -6 -1387 -2 -991 5 -1353 3 -1353
-5 0 -8 63 -11 213 -11 683 0 2300 -12 2397 -17 l115 -7 -60 -9 c-35 -5 -609
-6 -1362 -3 -717 3 -1303 2 -1303 -3 0 -11 879 -21 1866 -22 787 0 1033 -10
613 -24 -212 -7 -2046 -2 -2332 6 -81 2 -147 1 -147 -3 0 -5 8 -8 18 -9 9 0
44 -2 77 -5 33 -3 139 -7 235 -9 96 -3 180 -5 185 -5 6 0 2 -6 -9 -12 -18 -10
-111 -14 -385 -17 -68 0 -122 -3 -119 -6 2 -3 102 -5 221 -5 183 -1 217 -3
217 -16 0 -12 -35 -14 -220 -14 -140 0 -220 -4 -220 -10 0 -6 71 -10 194 -10
177 0 234 -7 190 -24 -9 -3 -99 -6 -200 -6 -116 0 -184 -4 -184 -10 0 -6 64
-10 171 -10 132 0 170 -3 167 -12 -4 -10 -49 -14 -171 -16 -209 -3 -229 -22
-24 -22 127 -1 140 -2 123 -15 -15 -11 -50 -15 -143 -15 -75 0 -123 -4 -123
-10 0 -6 42 -10 105 -10 58 0 105 -4 105 -9 0 -14 -40 -21 -127 -21 -67 0 -83
-3 -83 -15 0 -12 15 -15 75 -15 41 0 75 -4 75 -9 0 -10 -58 -21 -112 -21 -21
0 -38 -5 -38 -11 0 -6 20 -9 52 -8 33 2 53 -1 56 -9 2 -8 -13 -12 -52 -12 -31
0 -56 -4 -56 -10 0 -5 16 -10 35 -10 24 0 35 -5 35 -15 0 -10 -11 -15 -35 -15
-19 0 -35 -4 -35 -10 0 -5 7 -10 15 -10 19 0 19 -19 0 -26 -13 -5 -15 -63 -15
-438 0 -332 3 -435 13 -445 9 -11 9 -14 -1 -18 -19 -7 -14 -21 10 -25 32 -5
35 -28 4 -28 -14 0 -26 -4 -26 -10 0 -5 11 -10 24 -10 35 0 56 -10 56 -26 0
-10 -12 -14 -40 -14 -22 0 -40 -4 -40 -10 0 -5 23 -10 51 -10 66 0 62 -24 -4
-28 -63 -4 -60 -20 6 -24 30 -2 50 -7 47 -13 -3 -5 -26 -8 -53 -7 -28 2 -47 0
-47 -7 0 -5 27 -11 62 -13 38 -2 63 -8 66 -15 3 -10 -14 -13 -62 -13 -37 0
-66 -4 -66 -10 0 -6 32 -10 75 -10 60 0 75 -3 75 -15 0 -12 -15 -15 -75 -15
-43 0 -75 -4 -75 -10 0 -6 33 -10 80 -10 64 0 80 -3 80 -15 0 -12 -16 -15 -81
-15 -60 0 -80 -3 -77 -12 3 -8 33 -15 81 -18 43 -3 77 -9 77 -15 0 -6 -35 -11
-80 -13 -111 -4 -102 -22 11 -22 68 0 90 -3 87 -12 -3 -9 -33 -14 -91 -16
-121 -4 -110 -22 13 -22 60 0 100 -4 100 -10 0 -6 -40 -10 -100 -10 -60 0
-100 -4 -100 -10 0 -6 39 -10 98 -10 101 0 142 -6 142 -21 0 -5 -54 -9 -120
-9 -73 0 -120 -4 -120 -10 0 -6 51 -10 134 -10 74 0 141 -3 150 -6 43 -17 2
-24 -134 -24 -93 0 -150 -4 -150 -10 0 -6 60 -10 161 -10 155 0 199 -7 199
-32 0 -8 -50 -9 -180 -5 -151 5 -180 3 -180 -8 0 -12 34 -15 192 -17 142 -2
192 -6 196 -15 3 -10 -40 -13 -192 -13 -121 0 -196 -4 -196 -10 0 -6 78 -11
200 -12 125 -2 200 -7 200 -13 0 -6 -75 -11 -200 -13 -122 -1 -200 -6 -200
-12 0 -6 78 -10 205 -10 130 0 205 -4 205 -10 0 -6 -75 -10 -205 -10 -169 0
-205 -2 -205 -14 0 -11 35 -14 202 -12 153 1 202 -2 205 -11 4 -10 -41 -13
-201 -13 -128 0 -206 -4 -206 -10 0 -6 82 -11 212 -12 158 -2 212 -6 216 -15
3 -10 -44 -13 -212 -13 -119 0 -216 -4 -216 -8 0 -5 98 -12 217 -16 200 -6
263 -15 220 -32 -9 -3 -111 -4 -227 -2 -161 2 -210 0 -210 -9 0 -10 56 -13
230 -15 145 -2 230 -7 230 -13 0 -6 -85 -11 -230 -13 -142 -1 -230 -6 -230
-12 0 -6 89 -10 239 -10 149 0 242 -4 246 -10 4 -7 -78 -10 -239 -10 -212 0
-246 -2 -246 -15 0 -13 34 -15 250 -15 160 0 250 -4 250 -10 0 -6 -90 -10
-250 -10 -219 0 -250 -2 -250 -16 0 -13 29 -15 238 -14 291 2 282 2 282 -10 0
-6 -93 -10 -260 -10 -167 0 -260 -4 -260 -10 0 -6 95 -10 264 -10 145 0 271
-3 280 -6 9 -3 16 -12 16 -20 0 -11 -46 -13 -280 -7 -210 5 -280 3 -280 -5 0
-14 -13 -13 319 -21 190 -4 255 -9 259 -18 3 -10 -59 -13 -287 -13 -185 0
-291 -4 -291 -10 0 -6 111 -11 300 -12 192 -2 300 -7 300 -13 0 -6 -108 -11
-300 -13 -186 -1 -300 -6 -300 -12 0 -6 120 -11 315 -12 202 -2 315 -7 315
-13 0 -6 -113 -11 -315 -13 -199 -1 -315 -6 -315 -12 0 -6 121 -10 334 -10
213 0 337 -4 341 -10 4 -7 -110 -10 -334 -10 -300 0 -341 -2 -341 -15 0 -14
26 -16 198 -15 431 2 513 0 507 -10 -4 -6 -133 -10 -356 -10 -192 0 -349 -4
-349 -9 0 -4 132 -11 293 -16 160 -4 310 -8 332 -10 22 -2 52 -3 68 -4 15 -1
27 -6 27 -12 0 -9 -92 -10 -360 -5 -257 6 -360 5 -360 -3 0 -6 1 -12 3 -13 1
0 166 -4 366 -7 278 -5 365 -9 369 -18 3 -10 -75 -13 -367 -13 -238 0 -371 -4
-371 -10 0 -6 139 -11 382 -12 294 -2 382 -6 386 -15 3 -10 -78 -13 -382 -13
-251 0 -386 -4 -386 -10 0 -6 138 -10 395 -10 257 0 395 -4 395 -10 0 -6 -138
-10 -395 -10 -344 0 -395 -2 -395 -15 0 -13 52 -15 409 -15 263 0 412 -4 416
-10 4 -7 -135 -10 -409 -10 -368 0 -416 -2 -416 -15 0 -14 50 -16 438 -15 359
1 445 -1 482 -13 40 -13 -5 -14 -437 -9 -354 4 -483 2 -483 -6 0 -15 226 -21
1150 -30 472 -4 712 -10 670 -15 -36 -5 -460 -7 -943 -5 -697 2 -877 0 -877
-9 0 -16 -64 -15 775 -18 927 -3 1119 -6 1040 -15 -33 -4 -455 -8 -937 -9
-578 -1 -878 -4 -878 -11 0 -7 283 -10 828 -11 455 -1 838 -2 852 -3 14 -1 59
-4 100 -6 l75 -3 -90 -8 c-49 -4 -467 -7 -927 -8 -545 -1 -838 -4 -838 -11 0
-6 306 -11 873 -13 577 -2 886 -7 912 -14 40 -11 40 -11 -30 -14 -38 -1 -113
-1 -165 0 -156 4 -1584 0 -1589 -5 -2 -2 -2 -6 0 -8 2 -2 393 -6 869 -10 476
-4 888 -11 915 -15 49 -8 -252 -14 -545 -10 -1006 12 -1240 11 -1240 -5 0 -14
23 -16 193 -16 580 0 1574 -14 1587 -22 9 -6 -327 -7 -882 -4 -596 4 -898 3
-898 -4 0 -6 36 -10 88 -11 48 0 119 -3 157 -5 39 -3 410 -8 825 -12 425 -4
740 -11 720 -15 -19 -5 -430 -7 -913 -5 -696 2 -877 0 -877 -9 0 -9 16 -13 48
-13 26 0 385 -1 797 -1 679 -1 1088 -9 935 -19 -30 -2 -66 -5 -80 -6 -14 -1
-402 -3 -862 -3 -552 -1 -838 -4 -838 -11 0 -7 292 -10 853 -11 468 -1 886 -5
927 -9 67 -6 59 -7 -80 -11 -85 -2 -180 -4 -210 -5 -30 -1 -378 -2 -772 -3
-466 -1 -718 -4 -718 -11 0 -6 298 -11 848 -14 881 -4 1190 -15 813 -28 -112
-4 -204 -3 -218 3 -14 5 -323 9 -734 9 -585 0 -709 -2 -709 -13 0 -11 156 -15
878 -21 482 -4 902 -12 932 -16 30 -5 -365 -6 -877 -3 -814 5 -933 4 -933 -9
0 -13 75 -16 527 -21 289 -4 689 -8 887 -8 199 -1 375 -5 391 -10 17 -4 -381
-7 -887 -5 -505 2 -918 0 -918 -4 0 -12 46 -21 114 -22 33 -1 432 -4 886 -7
454 -3 810 -9 791 -13 -18 -5 -429 -8 -912 -8 -775 0 -879 -2 -879 -15 0 -13
108 -15 903 -16 496 -1 875 -5 842 -9 -33 -4 -439 -8 -902 -9 -555 -1 -843 -4
-843 -11 0 -7 238 -10 693 -10 382 0 783 -3 893 -7 l199 -8 -140 -6 c-77 -4
-479 -7 -892 -8 -488 -1 -753 -4 -753 -11 0 -6 270 -11 763 -14 419 -3 814 -9
877 -13 l115 -9 -115 -3 c-63 -2 -133 -3 -155 -2 -22 0 -365 3 -762 7 -624 5
-723 4 -723 -8 0 -13 113 -16 773 -23 424 -4 817 -11 872 -15 55 -5 -293 -6
-772 -3 -796 5 -873 4 -873 -11 0 -12 10 -16 43 -16 488 0 1601 -15 1627 -21
20 -5 -330 -7 -818 -5 -631 3 -852 1 -849 -8 6 -20 136 -23 902 -26 413 -2
725 -6 695 -10 -30 -5 -403 -8 -827 -9 -647 -1 -773 -3 -773 -15 0 -11 41 -13
223 -14 1030 -2 1476 -6 1312 -13 -99 -3 -485 -7 -857 -8 -445 -1 -678 -4
-678 -11 0 -7 208 -10 603 -11 331 -1 681 -5 777 -8 l175 -7 -195 -4 c-107 -2
-204 -4 -215 -5 -11 -1 -273 -3 -582 -4 -368 -1 -563 -4 -563 -11 0 -7 226
-10 658 -11 361 0 666 -4 677 -9 11 -5 16 -9 10 -10 -5 -1 -310 -1 -677 0
-571 1 -668 -1 -668 -13 0 -12 99 -15 653 -20 358 -3 661 -9 672 -14 28 -11
-296 -19 -480 -12 -82 4 -306 7 -497 8 -285 1 -348 -1 -348 -12 0 -15 432 -26
1100 -28 179 -1 377 -5 440 -9 64 -4 -249 -7 -712 -6 -783 1 -828 0 -828 -16
0 -17 46 -18 828 -19 470 0 818 -4 807 -9 -11 -5 -383 -9 -827 -9 -711 -1
-808 -3 -808 -16 0 -13 101 -15 843 -17 483 -1 772 -5 677 -8 -91 -4 -470 -8
-842 -9 -601 -1 -678 -3 -678 -16 0 -14 51 -16 438 -15 240 0 604 0 807 -2
l370 -2 -230 -7 c-126 -3 -490 -7 -807 -8 -370 -1 -578 -5 -578 -11 0 -6 239
-11 658 -14 361 -3 729 -9 817 -13 l160 -8 -210 -5 c-115 -3 -224 -2 -241 1
-17 4 -291 7 -608 8 -488 2 -576 0 -576 -12 0 -11 96 -15 598 -20 636 -8 1004
-16 1012 -25 3 -2 -358 -1 -802 2 -692 6 -808 5 -808 -7 0 -16 378 -27 1034
-28 221 0 419 -4 441 -9 24 -5 -264 -8 -718 -7 -715 2 -757 1 -757 -15 0 -17
42 -18 723 -19 397 -1 695 -5 662 -9 -33 -4 -358 -8 -722 -9 -582 -1 -663 -3
-663 -16 0 -13 84 -15 693 -16 394 -1 675 -5 652 -10 -22 -4 -334 -8 -692 -8
-428 -1 -653 -4 -653 -11 0 -7 214 -11 618 -12 339 -1 631 -3 647 -4 17 -1 59
-2 94 -3 35 0 62 -3 59 -6 -5 -5 -899 -15 -1275 -15 -87 0 -143 -4 -143 -10 0
-6 225 -11 628 -15 345 -2 796 -8 1002 -13 l375 -7 -335 -4 c-184 -2 -407 -2
-495 -2 -1033 12 -1175 11 -1175 -2 0 -12 110 -15 643 -22 353 -4 813 -11
1022 -15 260 -6 58 -7 -642 -5 -812 2 -1023 1 -1023 -9 0 -19 278 -26 1029
-27 350 -1 674 -4 721 -8 47 -5 -328 -8 -833 -7 -867 1 -917 0 -917 -16 0 -17
48 -18 868 -19 477 -1 847 -5 822 -10 -25 -4 -415 -8 -867 -8 -725 -1 -823 -3
-823 -16 0 -13 106 -15 888 -17 488 -1 833 -5 767 -8 -66 -4 -465 -8 -887 -9
-675 -1 -768 -3 -768 -16 0 -13 94 -15 784 -15 431 0 805 -3 832 -7 l49 -8
-75 -5 c-41 -3 -92 -2 -114 1 -21 4 -362 8 -757 8 -644 2 -719 0 -719 -13 0
-14 32 -16 258 -16 309 -1 725 -7 1112 -18 l285 -8 -215 -2 c-118 -2 -249 -2
-290 -2 -41 1 -317 4 -612 7 -464 4 -538 3 -538 -9 0 -16 302 -24 1218 -31
221 -2 405 -7 410 -12 4 -4 -361 -5 -810 -2 -661 5 -818 3 -818 -7 0 -17 216
-26 665 -26 230 0 345 -4 335 -10 -9 -6 -207 -10 -507 -10 -432 0 -493 -2
-493 -15 0 -13 55 -15 431 -15 284 0 428 -3 424 -10 -4 -6 -158 -10 -431 -10
-370 0 -424 -2 -424 -15 0 -13 51 -15 398 -15 260 0 392 -4 382 -10 -9 -6
-168 -10 -397 -10 -342 0 -383 -2 -383 -16 0 -14 35 -15 323 -14 177 1 340 1
362 0 38 -2 39 -3 10 -9 -16 -4 -142 -5 -280 -3 -263 3 -415 -4 -415 -19 0 -5
138 -9 330 -9 213 0 330 -4 330 -10 0 -6 -117 -10 -330 -10 -287 0 -330 -2
-330 -15 0 -13 35 -15 258 -15 262 0 332 -5 332 -23 0 -6 -102 -7 -295 -2
-258 6 -295 5 -295 -8 0 -23 45 -27 306 -27 156 0 244 -4 244 -10 0 -6 -98
-10 -275 -10 -238 0 -275 -2 -275 -15 0 -13 35 -15 256 -15 167 0 253 -3 249
-10 -4 -6 -100 -10 -256 -10 -215 0 -249 -2 -249 -15 0 -13 32 -15 228 -16
126 -1 214 -5 197 -9 -16 -4 -119 -8 -227 -9 -169 -1 -198 -3 -198 -16 0 -13
21 -15 132 -15 72 0 129 -2 126 -5 -3 -3 -62 -6 -132 -6 -117 -1 -126 -3 -126
-21 0 -17 7 -18 65 -17 36 1 68 -1 72 -5 3 -3 -26 -6 -65 -6 -57 0 -72 -3 -72
-15 0 -9 9 -15 25 -15 14 0 25 -4 25 -10 0 -5 -11 -10 -25 -10 -25 0 -25 0
-25 -95 l0 -95 205 0 c113 0 205 -3 205 -7 0 -5 -92 -7 -205 -5 -181 3 -205 2
-205 -12 0 -14 23 -16 178 -17 193 -1 260 -4 269 -13 4 -3 -96 -6 -220 -6
-192 0 -227 -2 -227 -15 0 -19 142 -24 1005 -33 l670 -8 -838 1 c-810 0 -838
-1 -835 -19 3 -17 33 -18 851 -18 467 -1 847 -5 847 -9 0 -5 -380 -9 -850 -9
-749 0 -850 -2 -850 -15 0 -13 102 -15 860 -15 567 0 860 -3 860 -10 0 -7
-293 -10 -860 -10 -758 0 -860 -2 -860 -15 0 -13 91 -15 757 -15 416 0 754 -3
750 -6 -3 -4 -344 -6 -757 -5 -749 2 -750 2 -750 -19 0 -20 3 -20 558 -21 502
-1 997 -11 882 -18 -50 -3 -22 -3 -847 5 l-593 6 0 -21 c0 -21 2 -21 283 -22
155 -1 496 -5 757 -9 390 -6 340 -7 -281 -4 l-756 4 -1 -45 -1 -45 47 -1 c26
0 430 0 899 0 546 0 854 -3 858 -9 4 -7 -310 -10 -899 -10 -799 0 -906 -2
-906 -15 0 -13 107 -15 905 -15 632 0 905 -3 905 -11 0 -5 -8 -9 -17 -8 -10 1
-417 1 -905 0 -782 -1 -888 -3 -888 -16 0 -13 91 -15 758 -15 788 0 1050 -6
1033 -23 -6 -6 -101 -7 -258 -3 -136 4 -484 7 -773 7 -811 0 -760 1 -760 -16
0 -13 50 -15 388 -15 613 0 1384 -12 1374 -22 -5 -5 -203 -6 -448 -3 -1434 17
-1314 18 -1314 -5 0 -19 6 -20 233 -21 127 -1 518 -5 867 -9 l635 -7 -867 2
c-704 2 -868 0 -868 -11 0 -7 6 -16 13 -21 6 -4 219 -10 472 -14 l460 -5 -472
-2 c-465 -2 -473 -2 -473 -22 0 -19 8 -20 438 -23 l437 -2 -437 -3 c-428 -2
-438 -2 -438 -22 0 -13 5 -18 14 -14 8 3 23 1 33 -5 15 -9 13 -10 -14 -11 -22
0 -33 -5 -33 -15 0 -13 60 -15 458 -18 l457 -2 -457 -3 -458 -2 0 -120 c0
-112 1 -120 19 -120 11 0 23 -5 27 -11 4 -7 -2 -9 -17 -7 -16 2 -25 -3 -27
-14 -3 -15 4 -18 43 -18 28 0 44 -4 40 -10 -3 -5 -24 -10 -46 -10 -28 0 -39
-4 -39 -15 0 -11 20 -15 92 -18 l93 -3 -92 -2 c-86 -2 -93 -4 -93 -22 0 -19 7
-20 183 -21 100 -1 227 -5 282 -9 68 -6 8 -7 -182 -5 l-283 4 0 -24 c0 -21 5
-24 43 -28 l42 -4 -42 -1 c-36 -2 -43 -5 -43 -22 0 -20 7 -20 4000 -20 2513 0
4000 4 4000 9 0 6 -24 12 -52 14 l-53 3 53 2 c39 2 52 6 52 17 0 13 -29 15
-202 15 -111 0 -199 3 -196 6 4 3 94 5 202 4 190 -1 196 0 196 20 0 19 -7 20
-202 23 l-203 2 203 3 c194 2 202 3 202 22 0 19 -8 20 -222 23 l-223 2 223 3
c215 2 222 3 222 22 0 20 -7 20 -327 21 -181 1 -353 5 -383 9 -30 5 117 6 328
3 l382 -6 0 22 c0 25 55 22 -505 31 l-430 7 468 -1 467 -1 0 23 0 22 -491 0
c-271 0 -494 2 -497 5 -3 3 218 5 491 5 435 0 497 2 497 15 0 13 -34 15 -242
16 -134 1 -253 0 -265 -1 -13 -1 -23 3 -23 9 0 8 83 11 265 11 228 0 265 2
265 15 0 13 -39 15 -267 18 l-268 2 268 3 c259 2 267 3 267 22 0 19 -8 20
-267 23 l-268 2 268 3 c260 2 267 3 267 22 0 19 -7 20 -227 21 -126 1 -349 5
-498 9 -203 6 -146 7 228 4 494 -4 497 -4 497 16 0 11 -1 21 -2 21 -2 1 -230
5 -508 8 l-505 7 508 2 c443 2 507 4 507 17 0 17 40 16 -572 15 -291 0 -438 3
-438 10 0 7 169 10 505 10 442 0 505 2 505 15 0 13 -109 15 -917 16 -505 0
-947 2 -983 5 -36 2 -160 4 -276 5 -116 0 -242 4 -280 8 -38 5 499 6 1194 3
1173 -5 1262 -4 1262 11 0 16 -37 17 -448 17 -843 0 -2106 13 -2082 22 19 7
447 7 1620 0 714 -5 910 -2 910 11 0 15 -755 25 -2000 28 -438 2 -543 4 -440
11 123 8 1177 4 2083 -8 355 -5 357 -5 357 16 0 24 153 21 -1335 30 l-1140 7
1238 -1 1237 -1 0 22 0 23 -737 3 -738 2 738 3 c729 2 737 2 737 22 0 20 -7
20 -730 17 -402 -1 -730 1 -730 6 0 4 329 7 730 7 642 0 730 2 730 15 0 13
-81 15 -671 15 -444 0 -668 3 -664 10 4 7 238 10 671 10 584 0 664 2 664 15 0
13 -76 15 -627 15 -598 0 -703 3 -703 20 0 11 158 11 165 0 3 -5 254 -9 585
-10 575 0 580 0 580 20 0 20 -6 20 -282 20 -356 0 -930 12 -923 18 3 3 117 4
253 3 1032 -14 952 -14 952 8 0 19 -6 20 -97 19 -54 0 -325 4 -603 10 l-505
10 603 -2 602 -1 0 22 0 22 -536 0 c-295 0 -539 2 -542 5 -3 4 238 6 536 6
475 0 542 2 542 15 0 13 -61 15 -487 16 -269 0 -509 0 -535 -1 -29 -1 -48 3
-48 9 0 8 160 11 535 11 469 0 535 2 535 15 0 13 -59 15 -475 15 -310 0 -475
3 -475 10 0 7 165 10 475 10 416 0 475 2 475 15 0 13 -59 15 -470 15 -307 0
-470 3 -470 10 0 7 163 10 470 10 411 0 470 2 470 15 0 13 -41 15 -313 15
-362 0 -617 9 -617 22 0 5 93 7 223 4 664 -15 707 -15 707 6 0 18 -9 19 -108
20 -497 4 -812 10 -812 16 0 4 207 6 460 5 446 -2 460 -2 460 17 0 18 -15 19
-457 20 -251 0 -459 2 -461 5 -3 3 202 5 456 5 404 0 462 2 462 15 0 13 -57
15 -455 15 -297 0 -455 3 -455 10 0 7 158 10 455 10 398 0 455 2 455 15 0 13
-57 15 -455 15 -297 0 -455 3 -455 10 0 7 158 10 455 10 398 0 455 2 455 15 0
13 -20 15 -122 15 -83 0 -118 3 -108 10 8 5 63 10 123 10 87 0 107 3 107 15 0
11 -18 15 -77 18 l-78 3 78 2 c67 2 77 4 77 20 0 16 -8 19 -46 20 -25 0 -48 3
-52 7 -12 12 19 22 59 18 30 -3 39 -1 39 11 0 15 -23 21 -57 17 -6 -1 -14 3
-18 9 -4 6 9 10 34 10 30 0 41 4 41 15 0 12 -17 15 -94 15 -53 0 -98 4 -101
10 -4 6 30 10 94 10 83 0 101 3 101 15 0 12 -18 15 -104 15 -59 0 -108 4 -111
10 -4 6 33 10 104 10 92 0 111 3 111 15 0 13 -31 15 -216 15 -141 0 -213 3
-209 10 4 6 87 10 216 10 l209 0 0 68 0 68 -195 -1 c-107 0 -195 3 -195 7 0 5
88 8 195 8 167 0 195 2 195 15 0 13 -28 15 -190 15 -120 0 -190 4 -190 10 0 6
70 10 190 10 162 0 190 2 190 15 0 13 -27 15 -185 15 -117 0 -185 4 -185 10 0
6 68 10 185 10 158 0 185 2 185 15 0 13 -27 15 -181 15 -117 0 -178 3 -174 10
4 6 75 10 181 10 109 0 174 4 174 10 0 13 18 11 -175 17 -93 2 -171 6 -173 8
-2 2 -1 9 3 15 7 12 193 8 303 -6 40 -5 42 -4 42 20 l0 26 -172 0 c-94 0 -168
3 -165 7 4 3 76 8 160 9 189 3 177 2 177 14 0 6 -18 10 -40 10 -22 0 -40 5
-40 10 0 6 18 10 40 10 l40 0 0 40 c0 33 -3 40 -19 40 -11 0 -23 5 -26 10 -4
6 5 10 19 10 16 0 26 6 26 15 0 13 -21 15 -125 15 -77 0 -125 4 -125 10 0 6
48 10 125 10 107 0 125 2 125 16 0 13 -14 15 -82 14 -141 -2 -142 -2 -128 15
10 12 32 15 111 11 91 -3 99 -2 99 15 0 17 -9 19 -81 19 -51 0 -78 4 -74 10 3
6 40 10 81 10 43 0 74 4 74 10 0 9 -50 15 -92 11 -10 -1 -18 2 -18 8 0 13 45
25 65 17 18 -6 45 2 45 15 0 5 -13 9 -30 9 -16 0 -30 5 -30 10 0 6 13 10 29
10 28 0 28 1 30 63 l1 62 -47 2 c-232 8 -353 17 -353 24 0 6 81 9 200 7 172
-3 200 -1 200 12 0 13 -27 15 -187 14 -191 -1 -227 2 -217 17 3 5 95 9 205 9
126 0 199 4 199 10 0 6 -77 10 -211 10 -164 0 -210 3 -207 13 4 11 28 12 391
17 15 0 27 5 27 10 0 6 -77 10 -211 10 -146 0 -210 3 -207 11 2 7 71 10 211 9
180 -1 207 1 207 15 0 13 -28 15 -215 15 -137 0 -215 4 -215 10 0 6 78 10 215
10 184 0 215 2 215 15 0 13 -30 15 -214 15 -171 0 -216 3 -225 14 -10 12 21
13 214 9 196 -5 225 -4 225 9 0 23 -89 28 -528 28 -260 0 -391 3 -387 10 4 6
168 10 461 10 407 0 454 2 454 16 0 12 -9 15 -37 14 -127 -6 -942 4 -908 11
22 4 244 8 493 8 294 1 452 4 452 11 0 6 -142 10 -402 11 -222 1 -410 2 -418
3 -8 2 -132 3 -274 4 -143 1 -257 4 -255 7 4 4 1055 17 1267 16 48 -1 82 3 82
9 0 7 -183 10 -528 10 -527 0 -892 8 -892 19 0 3 319 5 710 3 609 -3 710 -2
710 11 0 12 -91 15 -602 21 -332 4 -661 11 -733 16 -71 4 200 5 603 2 641 -4
732 -3 732 10 0 13 -56 16 -398 21 -218 4 -536 7 -707 7 -200 0 -315 4 -325
11 -11 7 201 9 708 6 560 -3 722 -1 722 8 0 7 -14 15 -31 19 -17 3 -354 7
-748 7 -394 1 -693 5 -666 9 28 5 364 9 748 9 457 1 697 4 697 11 0 6 -15 10
-32 11 -83 2 -811 8 -1148 10 -224 1 -345 5 -300 9 41 4 391 8 778 9 460 1
702 4 702 11 0 7 -237 10 -687 11 -379 1 -733 4 -788 8 -93 6 -85 7 114 14
118 4 472 7 788 7 370 0 573 3 573 10 0 6 -243 11 -682 14 -376 2 -730 8 -788
13 l-105 8 210 8 c146 6 219 5 238 -2 19 -7 207 -11 578 -11 452 0 549 2 549
13 0 11 -127 15 -707 22 -898 10 -1033 18 -493 29 223 4 437 5 475 1 39 -4
217 -9 398 -12 276 -4 327 -2 327 10 0 17 -330 26 -1035 28 -264 1 -493 5
-510 9 -16 5 324 8 758 7 743 -2 787 -1 787 16 0 16 -44 17 -777 18 -444 0
-769 4 -758 9 11 5 361 9 778 9 659 1 757 3 757 16 0 12 -40 14 -277 14 -825
0 -1303 5 -1258 11 28 5 384 9 793 9 487 1 742 4 742 11 0 7 -218 10 -632 10
-588 0 -925 7 -914 18 6 6 567 12 1119 12 278 0 427 3 427 10 0 6 -121 10
-342 10 -262 1 -338 3 -323 12 14 8 115 11 342 10 282 -2 323 0 323 13 0 13
-33 15 -246 15 -161 0 -243 3 -239 10 4 6 97 10 246 10 197 0 239 2 239 14 0
11 -31 14 -157 15 -86 1 -159 4 -162 7 -18 18 39 25 172 21 138 -4 147 -3 147
15 0 16 -9 18 -96 18 -61 0 -93 4 -89 10 3 6 46 10 96 10 53 0 89 4 89 10 0 6
-18 10 -39 10 -42 0 -62 14 -35 24 9 3 29 6 45 6 l29 0 0 85 c0 47 -3 86 -7
86 -5 1 -296 5 -648 8 -352 3 -639 10 -638 14 2 5 293 9 648 9 537 1 645 3
645 14 0 12 -111 14 -664 14 -433 0 -667 3 -671 10 -4 7 220 10 664 10 530 0
671 3 671 13 0 9 -136 12 -648 12 -671 0 -722 1 -722 16 0 5 289 9 685 9 450
0 685 3 685 10 0 6 -111 10 -312 10 -250 0 -310 3 -300 13 10 9 90 13 312 16
167 2 300 7 300 12 0 5 -82 9 -182 9 -129 0 -179 3 -171 11 6 6 75 11 182 11
137 1 171 3 171 14 0 11 -18 14 -76 14 -47 0 -73 4 -69 10 3 6 37 10 76 10 53
0 69 3 69 14 0 8 -6 17 -12 19 -10 4 -10 6 0 6 8 1 12 22 12 71 l0 70 -262 0
c-233 1 -261 2 -244 15 16 12 65 15 263 15 155 0 243 4 243 10 0 6 -80 10
-220 10 -200 0 -259 7 -197 24 12 3 111 6 220 6 121 0 197 4 197 10 0 6 -72
11 -182 12 l-183 3 34 18 c26 15 46 17 95 12 33 -3 100 -8 149 -11 83 -5 87
-4 87 15 0 20 -5 21 -135 21 -74 0 -135 4 -135 9 0 13 42 19 149 19 124 1 121
0 121 12 0 6 -43 10 -110 10 -67 0 -110 4 -110 10 0 6 43 10 110 10 133 0 149
18 20 22 -52 2 -90 7 -90 13 0 6 38 11 90 13 112 3 120 22 9 22 -60 0 -80 3
-77 13 3 8 31 13 81 15 96 4 102 22 8 22 -67 0 -98 11 -65 24 9 3 42 6 75 6
33 0 59 4 59 10 0 6 -30 10 -69 10 -39 0 -73 5 -76 10 -6 10 11 12 103 13 33
1 42 5 42 19 0 16 -10 18 -74 18 -41 0 -78 5 -81 10 -4 6 23 10 74 10 65 0 81
3 81 15 0 12 -16 15 -85 15 -50 0 -85 4 -85 10 0 6 35 10 85 10 115 0 109 18
-7 22 -62 2 -93 7 -96 16 -3 9 20 12 92 12 132 0 123 19 -11 22 -74 2 -108 7
-111 16 -3 9 23 12 107 12 155 0 143 19 -14 22 -166 4 -166 22 0 26 155 3 169
22 18 23 -130 1 -195 9 -201 27 -3 11 26 13 152 10 l156 -3 0 188 c0 180 -1
187 -20 187 -11 0 -20 5 -20 10 0 6 9 10 20 10 11 0 20 5 20 10 0 6 -13 10
-29 10 -16 0 -36 3 -45 6 -31 12 -16 24 29 24 25 0 45 5 45 10 0 6 -26 10 -59
10 -63 0 -91 6 -91 21 0 5 34 9 75 9 113 0 91 19 -27 22 -70 2 -103 7 -106 16
-3 9 22 12 102 12 88 0 106 3 106 15 0 13 -22 15 -139 15 -77 0 -146 3 -155 6
-44 17 -2 24 139 24 97 0 155 4 155 10 0 12 -182 13 -1077 10 -458 -2 -633 1
-633 9 0 6 12 12 28 13 15 0 32 2 37 3 6 2 378 3 828 4 537 1 817 4 817 11 0
7 -292 10 -856 10 -634 0 -855 3 -852 11 3 9 227 11 856 10 594 -2 852 1 852
8 0 8 -207 11 -672 12 -370 1 -695 3 -723 6 -27 2 -112 6 -187 10 -76 3 -138
9 -138 14 0 6 342 7 860 3 579 -5 860 -4 860 3 0 7 -280 13 -827 18 -966 9
-885 6 -891 24 -4 12 118 13 857 7 507 -4 861 -3 861 2 0 12 -565 22 -1207 22
-463 0 -513 2 -513 16 0 15 78 16 860 12 681 -2 860 0 860 9 0 10 -182 13
-860 15 -565 2 -860 6 -860 13 0 7 295 11 860 13 562 1 860 6 860 12 0 7 -298
10 -864 10 -478 0 -867 4 -870 9 -13 20 31 21 1462 21 179 0 272 4 272 10 0 7
-283 10 -871 10 -591 -1 -875 2 -882 9 -20 20 6 26 106 24 389 -10 1647 -12
1647 -3 0 6 -222 11 -642 15 -824 6 -1128 13 -1128 25 0 10 353 16 610 11 417
-8 1160 -10 1160 -3 0 9 -1325 29 -1495 23 -123 -4 -295 8 -295 22 0 7 263 8
895 4 492 -3 895 -3 895 2 0 13 -401 21 -1107 21 -369 0 -678 3 -687 6 -9 3
-16 10 -16 15 0 6 363 8 905 7 717 -2 905 0 905 9 0 10 -192 13 -912 15 -718
2 -912 6 -916 16 -3 9 184 12 912 12 601 0 916 3 916 10 0 6 -319 11 -922 12
-611 2 -921 6 -918 13 3 6 19 10 35 11 17 0 429 1 918 2 488 1 887 6 887 11 0
4 -357 8 -797 7 -718 -1 -1029 5 -1073 21 -37 13 31 19 203 17 992 -12 1667
-14 1667 -5 0 6 -212 12 -602 15 -937 9 -1298 16 -1298 27 0 7 601 16 635 9 6
-1 292 -4 638 -7 410 -4 627 -3 627 4 0 10 -812 23 -1490 23 -376 0 -440 3
-440 23 0 7 306 8 965 5 531 -4 965 -3 965 1 0 14 -364 21 -1151 21 -433 0
-794 3 -803 6 -9 3 -13 10 -10 15 3 5 419 9 985 9 643 0 979 3 979 10 0 6
-342 11 -990 12 -654 2 -989 6 -988 13 2 6 8 11 13 11 6 1 450 2 988 3 641 1
977 4 977 11 0 6 -347 11 -1007 12 -888 3 -1008 5 -1008 18 0 12 17 15 95 15
52 0 106 -2 120 -4 54 -7 1800 0 1800 8 0 4 -458 10 -1019 13 -664 4 -1024 9
-1036 16 -29 16 195 24 485 18 140 -4 551 -9 913 -11 527 -4 657 -3 657 7 0
10 -110 13 -532 15 -1025 5 -1642 13 -1652 23 -7 7 65 10 204 11 384 2 1146
-1 1568 -6 l412 -5 0 65 c0 49 -4 67 -15 71 -19 8 -19 24 0 24 8 0 15 4 15 9
0 6 -21 11 -47 13 -66 4 -70 28 -4 28 87 0 56 19 -36 22 -55 2 -86 7 -83 13 3
6 39 9 88 7 54 -2 82 0 82 7 0 7 -38 11 -108 11 -80 0 -113 4 -128 15 -17 13
-6 14 109 15 71 0 127 4 127 9 0 5 -68 11 -155 13 -125 2 -157 6 -170 19 -15
15 -2 16 154 11 114 -3 171 -1 171 6 0 19 -31 22 -205 22 -95 0 -180 3 -189 6
-46 18 3 24 189 24 130 0 205 4 205 10 0 6 -81 10 -224 10 -123 0 -231 3 -240
6 -47 18 7 24 224 24 151 0 240 4 240 10 0 6 -100 11 -267 12 -207 2 -267 6
-271 16 -3 10 48 12 267 10 l271 -3 0 57 c0 55 -1 57 -30 63 -39 9 -39 25 0
25 19 0 30 5 30 14 0 11 -20 15 -85 17 -49 3 -89 9 -97 17 -10 9 7 12 85 12
153 0 113 18 -48 22 -98 2 -148 7 -157 16 -10 9 19 12 145 12 98 0 157 4 157
10 0 6 -74 10 -202 10 -112 0 -213 3 -225 6 -63 17 -2 24 202 24 143 0 225 4
225 10 0 6 -105 10 -295 10 -254 0 -296 2 -301 15 -4 8 -19 15 -35 15 -21 0
-27 -4 -23 -15 5 -13 -10 -15 -106 -15 -96 0 -111 2 -106 15 4 13 -7 15 -71
15 -66 0 -74 -2 -63 -15 15 -18 19 -17 -95 -15 -49 1 -990 5 -2090 10 -1100 4
-2633 11 -3407 14 -957 4 -1408 3 -1408 -4z m7330 -55 c0 -13 -14 -15 -82 -13
-54 2 -83 7 -86 16 -3 9 18 12 82 12 71 0 86 -3 86 -15z m48 -41 c12 -4 22
-10 22 -16 0 -14 -193 -5 -198 10 -3 9 16 12 75 12 43 0 88 -3 101 -6z m160
-50 c12 -4 22 -10 22 -15 0 -15 -313 -6 -318 9 -3 9 28 12 135 12 76 0 148 -3
161 -6z m155 -55 c20 -5 37 -14 37 -18 0 -8 -359 -4 -417 5 -18 3 -33 9 -33
14 0 14 365 13 413 -1z m-75 -48 c131 -4 212 -10 212 -16 0 -6 -84 -10 -233
-10 -183 0 -238 3 -250 14 -24 20 -10 33 26 25 18 -4 128 -10 245 -13z m313
-58 c10 -11 -40 -13 -253 -13 -154 0 -269 4 -273 9 -8 14 26 16 282 16 172 0
235 -3 244 -12z m-501 -143 c13 -8 13 -10 -2 -15 -10 -4 -532 -5 -1160 -2
-629 3 -1485 5 -1903 6 -848 0 -1288 9 -1278 24 7 12 4321 -1 4343 -13z
m-2400 -36 c206 -4 382 -10 390 -15 16 -9 -292 -15 -600 -11 -102 1 -518 5
-925 10 -407 4 -742 10 -745 12 -16 15 1117 17 1880 4z m2473 -21 c15 -17 -13
-18 -571 -16 -826 3 -1492 14 -1492 24 0 5 439 9 1023 9 962 0 1025 -1 1040
-17z m-2623 -31 c212 -4 380 -10 374 -14 -13 -9 -1117 -14 -1131 -5 -6 4 -207
7 -447 7 -240 1 -444 4 -454 8 -47 19 693 21 1658 4z m2564 -12 c102 -4 141
-9 144 -18 3 -11 -54 -12 -309 -8 -173 3 -618 8 -989 11 -433 3 -678 9 -684
15 -11 11 1569 11 1838 0z m-2515 -36 c190 -5 269 -9 257 -16 -17 -10 -1758
-4 -1831 5 -16 3 -46 6 -65 7 -199 17 926 19 1639 4z m2330 -9 c250 -3 388 -8
394 -14 8 -8 -64 -11 -239 -12 -698 -1 -1701 10 -1734 19 -64 18 332 20 1579
7z m-2219 -42 c257 -15 17 -21 -815 -21 -879 0 -1012 5 -918 30 25 6 1611 -1
1733 -9z m2657 -9 c18 -3 35 -9 39 -15 4 -8 -282 -9 -937 -5 -519 3 -960 7
-979 9 -19 2 -55 5 -80 7 -40 3 -37 4 25 9 82 7 1885 2 1932 -5z m-5052 -34
c8 -13 -185 -16 -1110 -17 -763 -2 -875 1 -875 18 0 12 1977 12 1985 -1z
m2469 -8 c9 -16 -257 -22 -908 -22 -637 0 -925 7 -876 21 36 10 1778 11 1784
1z m2680 -8 c9 -3 16 -10 16 -15 0 -10 -1874 -13 -1993 -3 -43 4 -77 11 -77
15 0 10 2029 12 2054 3z m-5316 -27 c78 -5 142 -13 142 -17 0 -6 -1931 -1
-1939 6 -1 1 0 8 4 14 8 14 1583 11 1793 -3z m2617 -17 c4 -6 -21 -10 -67 -10
-40 0 -244 -3 -453 -6 -434 -8 -1238 4 -1229 17 8 13 1741 12 1749 -1z m2783
-17 c3 -10 -177 -13 -876 -13 -483 0 -961 3 -1062 7 -408 14 -92 22 894 20
821 -2 1040 -5 1044 -14z m-5723 -15 c83 -3 217 -7 298 -7 104 -1 146 -4 141
-12 -4 -8 -276 -9 -963 -4 -526 4 -958 9 -960 11 -1 1 0 8 4 14 7 12 1207 10
1480 -2z m2758 -13 c76 -4 140 -12 143 -16 5 -9 -257 -14 -396 -9 -36 1 -344
5 -685 9 -341 4 -622 9 -625 11 -17 15 1307 20 1563 5z m2891 -14 c116 -4 161
-9 164 -19 3 -10 -51 -12 -270 -9 -231 2 -1388 13 -1785 16 -75 1 -123 5 -123
11 0 11 1734 12 2014 1z m-5349 -27 c100 -5 124 -9 105 -16 -25 -10 -1888 -4
-1897 6 -3 3 -2 10 2 17 6 9 201 10 834 5 454 -3 885 -9 956 -12z m2095 -6
c118 -3 277 -7 353 -7 96 -1 137 -4 137 -13 0 -8 -199 -9 -807 -4 -782 7 -995
15 -758 27 146 7 804 6 1075 -3z m-2070 -45 c205 -15 -14 -21 -820 -22 -874
-1 -1020 3 -1020 24 0 9 203 11 878 8 482 -2 915 -6 962 -10z m2320 -10 c418
-11 192 -22 -485 -22 -453 -1 -712 3 -800 11 -89 8 -121 14 -100 19 34 7 1039
2 1385 -8z m1093 -13 c-12 -5 -34 -5 -50 0 -24 7 -21 8 22 9 38 0 45 -2 28 -9z
m-3378 -29 c13 -5 -2 -10 -50 -14 -111 -9 -1865 -8 -1865 1 0 5 3 12 7 15 9
10 1884 7 1908 -2z m2401 -8 c187 -15 -3 -22 -696 -22 -694 -1 -915 5 -750 20
93 8 1352 10 1446 2z m-2554 -45 c-10 -10 -210 -14 -912 -16 -809 -3 -900 -2
-900 12 0 14 94 16 912 16 730 0 910 -3 900 -12z m133 2 c4 -6 -6 -10 -24 -10
-16 0 -33 5 -36 10 -4 6 6 10 24 10 16 0 33 -4 36 -10z m2459 -9 c10 -16 -209
-22 -801 -20 -629 2 -727 5 -717 20 7 12 1511 12 1518 0z m-2634 -45 c0 -18
-120 -30 -195 -20 -86 11 -250 13 -938 14 -443 0 -666 3 -662 10 4 7 315 10
901 10 764 0 894 -2 894 -14z m155 -6 c3 -5 -3 -10 -15 -10 -12 0 -18 5 -15
10 3 6 10 10 15 10 5 0 12 -4 15 -10z m2455 -4 c-7 -13 -854 -20 -1205 -11
-508 14 -266 25 480 22 447 -1 728 -6 725 -11z m-2937 -30 c31 -2 112 -5 179
-5 74 -1 118 -5 112 -10 -18 -17 -1794 -8 -1794 9 0 5 6 11 13 14 14 6 1400
-1 1490 -8z m467 -16 c0 -5 -11 -10 -25 -10 -14 0 -25 5 -25 10 0 6 11 10 25
10 14 0 25 -4 25 -10z m2454 -7 c14 -8 -42 -12 -222 -18 -132 -4 -246 -3 -254
1 -12 8 -115 10 -705 13 -179 1 -253 4 -253 12 0 16 1407 8 1434 -8z m-2742
-30 c48 -3 85 -9 82 -14 -6 -11 -640 -12 -1343 -2 -441 5 -501 8 -485 21 16
12 135 13 839 8 451 -4 859 -9 907 -13z m2386 -9 c192 -3 342 -10 342 -15 0
-7 -767 -16 -804 -10 -4 1 -135 4 -290 7 -154 3 -288 9 -296 12 -8 4 48 10
125 13 137 6 231 5 923 -7z m-2128 2 c0 -2 -11 -6 -25 -8 -14 -3 -25 -1 -25 3
0 5 11 9 25 9 14 0 25 -2 25 -4z m3540 -16 c0 -5 -4 -10 -10 -10 -5 0 -10 5
-10 10 0 6 5 10 10 10 6 0 10 -4 10 -10z m-3751 -27 c3 -2 0 -8 -6 -14 -13
-13 -1840 -9 -1861 4 -7 5 -10 12 -7 17 5 8 1865 2 1874 -7z m166 -14 c-18 -5
-33 -5 -39 1 -7 7 4 10 30 9 39 -1 39 -1 9 -10z m2288 5 c394 -13 182 -24
-468 -23 -536 0 -654 2 -675 14 -22 12 39 14 455 15 264 0 574 -3 688 -6z
m1327 -14 c0 -13 -11 -13 -30 0 -12 8 -11 10 8 10 12 0 22 -4 22 -10z m-3810
-26 c2 -3 -2 -9 -10 -14 -17 -11 -1873 -14 -1883 -3 -27 26 39 28 950 25 516
-2 940 -6 943 -8z m170 -4 c11 -7 7 -10 -18 -10 -20 0 -31 4 -27 10 8 13 26
13 45 0z m2460 -7 l55 -8 -55 -6 c-79 -10 -1049 -11 -1183 -2 l-112 8 75 6
c112 8 1157 10 1220 2z m1218 -18 c12 -12 -9 -17 -47 -10 -24 4 -38 11 -35 17
6 10 71 5 82 -7z m-3878 -24 c0 -5 -30 -11 -67 -13 -107 -6 -1825 -8 -1835 -2
-4 3 -6 10 -3 15 8 12 1905 12 1905 0z m200 -1 c0 -5 -18 -10 -40 -10 -22 0
-40 5 -40 10 0 6 18 10 40 10 22 0 40 -4 40 -10z m2475 -9 c30 -12 -232 -21
-605 -21 -374 0 -708 11 -645 21 58 9 1226 9 1250 0z m1220 -20 c-6 -6 -25 -6
-45 -1 l-35 8 45 1 c27 1 40 -3 35 -8z m-4965 -16 c0 -6 -156 -11 -442 -12
-394 -2 -441 -1 -423 12 16 13 81 15 442 13 274 -2 423 -7 423 -13z m1031 4
c21 -14 -19 -42 -46 -33 -11 3 -220 8 -465 11 -245 2 -451 6 -457 8 -7 2 -13
9 -13 14 0 13 962 13 981 0z m190 -9 c16 0 29 -4 29 -10 0 -5 -25 -10 -56 -10
-50 0 -55 2 -44 15 7 9 20 13 27 10 8 -3 28 -5 44 -5z m2519 -9 c0 -13 -171
-17 -625 -15 -582 2 -627 3 -620 14 8 13 1245 14 1245 1z m1250 -11 c11 -7 -1
-9 -40 -9 -46 1 -50 3 -25 9 43 11 48 11 65 0z m-5017 -25 c-2 -6 -162 -11
-448 -13 -404 -2 -481 2 -432 21 24 11 882 2 880 -8z m842 1 c61 -3 129 -5
153 -5 26 -1 41 -5 37 -11 -7 -11 -409 -12 -709 -1 -132 4 -180 9 -184 19 -3
10 55 12 295 7 164 -3 348 -7 408 -9z m2755 -11 c279 -15 182 -30 -170 -26
-271 2 -885 17 -890 21 -17 14 811 18 1060 5z m-2345 -5 c-3 -5 -31 -10 -61
-10 -34 0 -53 4 -49 10 3 6 31 10 61 10 34 0 53 -4 49 -10z m3790 -10 c4 -6
-13 -10 -45 -10 -32 0 -49 4 -45 10 3 6 24 10 45 10 21 0 42 -4 45 -10z
m-5045 -27 c0 -17 -28 -18 -462 -15 -254 1 -464 5 -466 7 -22 22 41 25 469 25
430 0 459 -1 459 -17z m1008 2 c7 -3 10 -9 7 -15 -4 -6 -148 -10 -404 -10
-385 0 -421 3 -421 30 0 6 799 2 818 -5z m2405 -11 c229 -3 337 -9 337 -16 0
-13 -1126 -4 -1175 9 -45 12 134 21 335 16 91 -2 317 -6 503 -9z m-2178 -4
c-28 -12 -115 -12 -115 0 0 6 29 10 68 9 46 0 61 -3 47 -9z m3830 -10 c-3 -5
-28 -10 -56 -10 -27 0 -49 5 -49 10 0 6 25 10 56 10 34 0 53 -4 49 -10z
m-5065 -25 c6 -4 7 -11 4 -17 -5 -8 -143 -9 -473 -4 -256 4 -469 10 -473 12
-5 3 -5 10 -2 16 8 12 925 5 944 -7z m1000 -10 c0 -13 -49 -15 -380 -15 -331
0 -380 2 -380 15 0 13 49 15 380 15 331 0 380 -2 380 -15z m195 5 c35 -2 37
-3 15 -10 -34 -11 -110 -12 -110 -2 0 15 12 22 34 17 12 -2 39 -4 61 -5z
m2409 -7 c79 -3 132 -10 124 -14 -19 -12 -1135 -11 -1143 1 -3 6 39 11 112 13
248 6 776 7 907 0z m1476 -13 c0 -13 -80 -13 -100 0 -11 7 2 10 43 10 31 0 57
-4 57 -10z m-5427 -20 c312 0 357 -2 357 -15 0 -13 -56 -15 -467 -13 -451 3
-468 4 -471 22 -4 18 1 19 109 13 63 -4 275 -7 472 -7z m1335 -12 c-4 -10 -85
-13 -363 -13 -278 0 -359 3 -362 13 -4 9 73 12 362 12 289 0 366 -3 363 -12z
m212 2 c10 -7 -6 -10 -55 -10 -49 0 -65 3 -55 10 8 5 33 10 55 10 22 0 47 -5
55 -10z m2383 -6 c253 -14 91 -23 -414 -23 -481 -1 -662 6 -514 19 93 9 782
11 928 4z m1517 -24 c0 -13 -90 -13 -110 0 -11 7 3 10 48 10 35 0 62 -4 62
-10z m-5082 -22 c-4 -10 -107 -13 -473 -13 -366 0 -469 3 -472 13 -4 9 95 12
472 12 377 0 476 -3 473 -12z m950 0 c-4 -10 -82 -13 -348 -13 -266 0 -344 3
-347 13 -4 9 70 12 347 12 277 0 351 -3 348 -12z m217 2 c4 -6 -17 -10 -55
-10 -38 0 -59 4 -55 10 3 6 28 10 55 10 27 0 52 -4 55 -10z m2490 -9 c35 -14
-138 -21 -511 -21 -373 0 -570 8 -524 21 34 10 1010 10 1035 0z m1435 -21 c0
-11 -50 -11 -95 0 -24 6 -17 8 33 9 35 0 62 -3 62 -9z m-4150 -25 c0 -17 4
-17 -80 -15 -36 1 -177 3 -315 6 -137 2 -256 6 -263 9 -43 16 32 20 327 17
284 -2 331 -5 331 -17z m-920 6 c0 -15 -32 -16 -507 -13 -288 1 -453 6 -453
12 0 6 173 10 480 10 291 0 480 -4 480 -9z m1110 -11 c11 -7 0 -10 -37 -10
-29 0 -53 5 -53 10 0 13 70 13 90 0z m2508 1 c15 -9 -273 -21 -518 -21 -238 0
-503 12 -488 21 17 11 989 11 1006 0z m1462 -11 c0 -6 -23 -9 -52 -8 l-53 1
45 7 c25 4 48 8 53 8 4 1 7 -2 7 -8z m-5076 -16 c9 -3 16 -10 16 -15 0 -12
-947 -12 -954 0 -3 4 -3 11 1 15 8 8 916 8 937 0z m734 -10 c89 -4 162 -11
162 -15 0 -18 -587 -14 -607 3 -30 25 2 31 141 24 78 -3 214 -9 304 -12z
m2657 -10 c105 -3 196 -10 204 -14 20 -11 -338 -24 -424 -16 -38 4 -177 9
-307 12 -137 3 -238 9 -238 14 0 8 470 19 550 13 14 -1 111 -5 215 -9z m-2300
-4 c-3 -5 -24 -10 -46 -10 -21 0 -39 5 -39 10 0 6 21 10 46 10 27 0 43 -4 39
-10z m3980 -10 c4 -6 -11 -10 -37 -9 -36 1 -39 2 -18 9 36 11 48 11 55 0z
m-5034 -27 c7 -7 10 -15 8 -18 -3 -2 -218 -1 -479 3 -370 5 -474 10 -478 20
-6 18 931 13 949 -5z m847 -11 c3 -10 -54 -12 -279 -10 -220 2 -283 6 -287 16
-3 10 52 12 279 10 217 -2 283 -6 287 -16z m187 -2 c-3 -5 -24 -10 -46 -10
-21 0 -39 5 -39 10 0 6 21 10 46 10 27 0 43 -4 39 -10z m2514 -6 c14 -12 -47
-14 -425 -14 -385 0 -513 6 -531 24 -7 7 948 -3 956 -10z m1491 -4 c0 -5 -13
-10 -30 -10 -16 0 -30 5 -30 10 0 6 14 10 30 10 17 0 30 -4 30 -10z m-5266
-19 c186 -4 250 -9 254 -18 3 -10 -67 -13 -330 -12 -418 2 -600 10 -606 27 -4
13 217 14 682 3z m1064 -19 c3 -10 -50 -12 -259 -10 -201 2 -263 6 -267 16 -3
10 50 12 259 10 201 -2 263 -6 267 -16z m165 1 c-13 -2 -33 -2 -45 0 -13 2 -3
4 22 4 25 0 35 -2 23 -4z m2335 1 c105 -4 192 -11 192 -15 0 -13 -897 -11
-905 1 -9 15 429 24 713 14z m1717 -13 c10 -18 -15 -22 -42 -7 l-28 15 32 1
c17 0 34 -4 38 -9z m-4995 -36 c0 -13 -55 -15 -462 -13 -358 2 -462 6 -466 16
-3 9 94 12 462 12 409 0 466 -2 466 -15z m768 3 c-4 -10 -59 -14 -224 -16
-221 -3 -264 0 -264 18 0 6 92 10 246 10 192 0 245 -3 242 -12z m172 2 c11 -7
3 -10 -28 -10 -26 0 -41 4 -37 10 8 13 45 13 65 0z m2475 -9 l60 -6 -59 -8
c-73 -9 -788 -8 -831 1 -26 6 -21 8 30 13 84 8 727 8 800 0z m1569 -21 c-7 -7
-19 -7 -35 -1 -23 9 -22 10 11 10 23 1 31 -2 24 -9z m-4970 -19 c11 -17 -74
-21 -485 -21 -356 0 -419 3 -429 15 -11 13 43 15 448 15 254 0 463 -4 466 -9z
m740 0 c-9 -9 -409 -22 -431 -14 -7 3 -13 9 -13 14 0 5 96 9 227 9 133 0 223
-4 217 -9z m176 -1 c0 -5 -16 -10 -35 -10 -19 0 -35 5 -35 10 0 6 16 10 35 10
19 0 35 -4 35 -10z m2505 -8 c50 -12 -116 -19 -410 -19 -323 1 -461 6 -425 18
31 9 793 10 835 1z m2567 -14 c-10 -10 -117 -14 -449 -16 -240 -2 -444 0 -452
4 -44 18 58 23 469 23 355 1 442 -2 432 -11z m-1019 -5 c-7 -2 -19 -2 -25 0
-7 3 -2 5 12 5 14 0 19 -2 13 -5z m-4990 -13 c15 0 27 -4 27 -10 0 -13 -886
-14 -894 -1 -3 4 -4 10 -2 12 3 2 193 3 423 2 230 -2 430 -3 446 -3z m746 -6
c14 -13 -24 -26 -71 -25 -300 8 -352 13 -334 32 6 6 399 -1 405 -7z m177 -15
c3 -5 -13 -9 -35 -9 -37 0 -50 8 -36 22 7 7 65 -3 71 -13z m2519 1 c4 -6 -26
-11 -82 -12 -48 0 -153 -2 -233 -4 -195 -4 -520 7 -520 18 0 12 827 10 835 -2z
m2437 -12 c-10 -10 -103 -14 -379 -16 -202 -1 -373 0 -380 3 -8 2 -11 9 -8 15
4 6 144 10 393 10 309 0 384 -3 374 -12z m-879 -5 c-7 -2 -19 -2 -25 0 -7 3
-2 5 12 5 14 0 19 -2 13 -5z m-4959 -9 c53 -20 -23 -24 -431 -22 -346 2 -447
6 -451 16 -3 9 88 12 431 12 240 0 442 -3 451 -6z m446 -11 c58 -1 135 -3 173
-3 39 0 67 -4 67 -10 0 -7 -65 -10 -187 -8 -175 3 -188 4 -191 22 -3 15 0 17
14 10 11 -4 66 -9 124 -11z m2847 -12 c50 -1 95 -5 98 -11 6 -9 -271 -17 -415
-11 -30 1 -129 4 -220 7 -91 3 -172 8 -180 12 -21 10 410 18 529 11 53 -4 137
-7 188 -8z m-2422 -1 c-3 -5 -24 -10 -46 -10 -21 0 -39 5 -39 10 0 6 21 10 46
10 27 0 43 -4 39 -10z m4095 -10 c0 -5 -7 -10 -16 -10 -8 0 -12 5 -9 10 3 6
10 10 16 10 5 0 9 -4 9 -10z m772 -2 c-9 -9 -55 -14 -140 -15 -186 -4 -532 8
-526 18 3 5 157 9 342 9 269 0 334 -3 324 -12z m678 -8 c8 -5 12 -11 9 -15 -3
-3 -105 -4 -225 -3 -178 2 -214 5 -194 15 30 14 388 17 410 3z m-6352 -24 c15
-15 4 -16 -134 -16 -83 0 -293 3 -467 7 -271 5 -317 8 -317 21 0 13 56 14 451
10 395 -5 453 -8 467 -22z m605 -1 c-2 -6 -69 -11 -168 -13 -145 -2 -165 -1
-165 13 0 14 21 16 168 13 105 -2 166 -7 165 -13z m192 -5 c-3 -5 -24 -10 -46
-10 -21 0 -39 5 -39 10 0 6 21 10 46 10 27 0 43 -4 39 -10z m2039 -1 c101 -1
159 -5 141 -9 -36 -9 -437 -13 -459 -4 -9 3 -13 11 -10 16 5 7 34 8 82 4 41
-3 152 -7 246 -7z m476 -9 c0 -6 -40 -10 -100 -10 -60 0 -100 4 -100 10 0 6
40 10 100 10 60 0 100 -4 100 -10z m2195 1 c64 -5 68 -7 47 -19 -17 -10 -62
-12 -185 -8 -253 8 -367 17 -367 27 0 10 391 10 505 0z m590 -12 c-66 -14
-285 -23 -285 -12 0 21 18 23 169 22 112 -1 145 -4 116 -10z m333 -6 c5 -17
-25 -16 -63 2 l-30 14 44 -2 c25 -1 46 -7 49 -14z m-6400 -8 c6 -3 12 -9 12
-15 0 -7 -148 -9 -467 -8 -414 3 -468 5 -471 19 -2 14 45 15 455 11 252 -2
464 -5 471 -7z m552 -10 c0 -16 -282 -13 -288 3 -3 10 27 12 142 10 89 -2 146
-7 146 -13z m207 -1 c-11 -11 -97 -16 -97 -5 0 7 22 11 52 11 28 0 49 -3 45
-6z m2508 -14 c-3 -5 -46 -10 -96 -10 -53 0 -89 4 -89 10 0 6 39 10 96 10 61
0 93 -4 89 -10z m1609 -11 c-3 -5 -10 -7 -15 -3 -5 3 -7 10 -3 15 3 5 10 7 15
3 5 -3 7 -10 3 -15z m590 1 c-10 -10 -67 -12 -326 -11 -98 1 -158 5 -158 11 0
6 89 10 247 10 164 0 244 -3 237 -10z m396 1 c-8 -5 -49 -10 -90 -11 -91 -3
-93 -2 -85 10 3 6 47 10 98 10 57 0 86 -4 77 -9z m598 -6 c-3 -12 -29 -8 -43
7 -7 6 -1 8 18 6 15 -2 26 -7 25 -13z m-6428 -20 c0 -13 -59 -15 -469 -15
-259 0 -472 4 -475 9 -3 4 -3 11 1 15 3 3 217 6 475 6 409 0 468 -2 468 -15z
m508 3 c-4 -10 -37 -13 -123 -13 -86 0 -119 3 -122 13 -4 9 25 12 122 12 97 0
126 -3 123 -12z m191 0 c9 0 -4 -4 -29 -7 -50 -7 -63 -5 -54 11 4 5 20 7 36 4
17 -3 38 -7 47 -8z m2465 -9 l61 -2 -45 -8 c-58 -10 -346 -11 -336 -1 10 9
159 21 215 16 24 -2 71 -5 105 -5z m2209 -8 c5 -1 5 -5 2 -11 -8 -13 -415 -14
-415 0 0 11 316 19 413 11z m337 0 c3 -1 -2 -6 -10 -11 -19 -12 -148 -13 -134
-1 14 13 44 18 94 15 25 -1 47 -3 50 -3z m780 -11 c0 -5 -6 -10 -14 -10 -8 0
-18 5 -21 10 -3 6 3 10 14 10 12 0 21 -4 21 -10z m-6477 -25 c-3 -11 -879 -20
-920 -10 -13 3 -23 10 -23 15 0 7 165 9 473 8 308 -2 471 -6 470 -13z m487 6
c0 -14 -34 -19 -126 -17 -60 1 -89 5 -91 14 -4 9 22 12 106 12 61 0 111 -4
111 -9z m190 -1 c11 -7 0 -10 -38 -10 -33 0 -51 4 -47 10 8 13 65 13 85 0z
m2460 -10 c67 -9 69 -9 -165 -17 -213 -7 -546 7 -420 18 104 8 522 8 585 -1z
m2168 -12 c-6 -16 -307 -24 -408 -11 l-65 8 100 6 c208 11 377 10 373 -3z
m262 3 c0 -12 -26 -21 -63 -21 -30 1 -31 1 -13 15 22 16 76 20 76 6z m718 3
c61 -17 3 -24 -190 -24 -130 0 -208 4 -202 9 5 5 23 11 39 14 48 7 328 7 353
1z m246 -19 c3 -8 2 -15 -3 -15 -5 0 -14 7 -21 15 -10 12 -10 15 3 15 8 0 17
-7 21 -15z m-6519 -16 c5 -5 0 -9 -15 -9 -307 -4 -912 0 -922 7 -14 9 569 20
792 15 74 -2 139 -7 145 -13z m465 1 c0 -21 -32 -30 -111 -27 -69 2 -84 5 -87
19 -2 11 5 18 20 20 40 5 178 -3 178 -12z m185 -10 c4 -6 -13 -10 -45 -10 -32
0 -49 4 -45 10 3 6 24 10 45 10 21 0 42 -4 45 -10z m2465 0 c14 -4 23 -9 20
-9 -7 -2 -350 -3 -510 -2 -91 1 -130 4 -120 11 18 12 574 12 610 0z m2140 -9
c0 -5 -7 -12 -16 -15 -22 -8 -168 -8 -300 2 -108 7 -108 7 -44 13 108 9 360
10 360 0z m200 0 c0 -10 -30 -24 -37 -17 -3 3 -2 9 2 15 8 13 35 15 35 2z
m912 -13 c20 -11 9 -13 -97 -16 -162 -5 -525 8 -525 18 0 17 42 19 317 15 210
-2 287 -7 305 -17z m-6367 -4 c21 -8 19 -34 -2 -35 -10 -1 -36 -1 -58 0 -22 1
-221 4 -442 7 -327 5 -403 9 -403 20 0 11 80 13 445 13 245 0 452 -2 460 -5z
m445 -24 c0 -6 -35 -10 -85 -10 -50 0 -85 4 -85 10 0 6 35 10 85 10 50 0 85
-4 85 -10z m195 0 c4 -6 -13 -10 -44 -10 -28 0 -51 5 -51 10 0 6 20 10 44 10
25 0 48 -4 51 -10z m2420 -9 c28 -6 -6 -9 -116 -10 -205 -1 -399 9 -399 22 0
12 451 1 515 -12z m2145 0 c0 -14 -20 -18 -85 -15 -33 1 -107 2 -165 3 -72 1
-100 4 -90 11 19 12 340 13 340 1z m1218 -6 c6 -2 12 -9 12 -15 0 -7 -138 -10
-421 -10 -405 0 -455 4 -389 28 20 7 776 4 798 -3z m-6534 -19 c102 -1 140 -4
143 -13 4 -10 -76 -13 -379 -12 -420 1 -509 6 -516 28 -4 12 40 13 304 6 170
-5 372 -9 448 -9z m514 -5 c62 -2 32 -21 -33 -21 -49 0 -65 3 -65 14 0 9 10
13 33 10 17 -1 47 -3 65 -3z m217 -11 c-28 -12 -85 -12 -85 0 0 6 24 10 53 9
38 0 47 -3 32 -9z m2430 -10 c4 -7 -78 -10 -239 -10 -157 0 -246 4 -246 10 0
6 86 10 239 10 149 0 242 -4 246 -10z m2125 3 c-1 -26 -20 -34 -66 -29 -27 3
-93 8 -146 12 -54 4 -98 11 -98 16 0 4 70 8 155 8 85 0 155 -3 155 -7z m1307
-20 c3 -8 -119 -11 -491 -11 -273 0 -496 3 -496 8 0 5 6 11 13 13 6 3 228 5
491 4 354 -2 480 -5 483 -14z m-6429 -20 c3 -10 -88 -13 -432 -13 -239 0 -437
4 -440 9 -3 4 -3 11 1 15 4 3 200 5 436 4 334 -2 431 -6 435 -15z m365 2 c-4
-15 -76 -12 -81 3 -3 10 7 12 39 10 24 -2 43 -7 42 -13z m185 -2 c-16 -2 -40
-2 -55 0 -16 2 -3 4 27 4 30 0 43 -2 28 -4z m2362 -14 c-54 -9 -349 -4 -358 6
-3 3 89 4 204 4 157 -1 195 -4 154 -10z m2220 -9 c0 -6 -58 -10 -155 -10 -97
0 -155 4 -155 10 0 6 58 10 155 10 97 0 155 -4 155 -10z m560 0 c-20 -13 -333
-13 -325 0 4 6 72 10 173 10 112 0 162 -4 152 -10z m790 0 c0 -6 -66 -10 -179
-10 -109 0 -182 4 -186 10 -4 7 58 10 179 10 117 0 186 -4 186 -10z m-6452
-28 c3 -10 -85 -12 -434 -10 -341 2 -438 6 -442 16 -3 10 85 12 434 10 341 -2
438 -6 442 -16z m330 7 c-2 -6 -7 -10 -11 -10 -4 1 -14 1 -22 1 -8 0 -15 5
-15 10 0 6 12 10 26 10 14 0 24 -5 22 -11z m191 -4 c2 -3 -17 -5 -43 -5 -26 0
-45 4 -42 9 5 8 76 5 85 -4z m2274 -12 c-40 -2 -106 -2 -145 0 -40 1 -8 3 72
3 80 0 112 -2 73 -3z m2288 -8 c-1 -13 -182 -19 -241 -8 -37 7 -20 9 90 13
160 7 152 7 151 -5z m463 8 c4 -3 2 -9 -5 -14 -19 -12 -279 -11 -279 0 0 5 12
11 28 14 41 5 246 5 256 0z m944 -10 c14 -10 -11 -12 -145 -13 -149 0 -184 5
-165 24 13 13 292 3 310 -11z m-6455 -28 c2 -11 -829 -20 -870 -10 -13 3 -23
10 -23 15 0 14 889 9 893 -5z m462 5 c4 -6 -10 -10 -34 -10 -23 0 -41 5 -41
10 0 6 15 10 34 10 19 0 38 -4 41 -10z m4540 -20 c10 -16 -40 -23 -118 -17
-39 4 -85 7 -102 8 -16 2 4 5 45 9 123 10 168 11 175 0z m413 -2 c-6 -16 -248
-24 -248 -9 0 16 22 19 138 20 87 1 113 -2 110 -11z m575 -7 c8 -8 -29 -11
-133 -11 -79 0 -140 3 -136 7 22 22 247 26 269 4z m-5958 -21 c4 -7 -148 -10
-449 -10 -292 0 -457 4 -461 10 -4 7 148 10 449 10 292 0 457 -4 461 -10z
m430 -10 c4 -6 -13 -10 -45 -10 -32 0 -49 4 -45 10 3 6 24 10 45 10 21 0 42
-4 45 -10z m4495 -10 c0 -13 -24 -15 -109 -11 -60 4 -69 6 -41 11 53 10 150
10 150 0z m390 1 c0 -16 -30 -21 -131 -21 -91 0 -111 5 -92 23 10 10 223 8
223 -2z m727 -13 c16 -17 12 -18 -87 -18 -58 0 -176 3 -264 7 -139 5 -156 8
-140 20 15 11 65 13 246 11 201 -3 229 -5 245 -20z m-6127 -13 c58 -4 110 -11
115 -17 7 -7 -131 -8 -450 -3 -253 4 -462 9 -464 10 -1 2 0 9 4 15 7 11 572 8
795 -5z m510 -15 c0 -5 -22 -10 -50 -10 -27 0 -50 5 -50 10 0 6 23 10 50 10
28 0 50 -4 50 -10z m4455 -10 c-3 -5 -39 -10 -78 -9 -50 0 -66 3 -52 9 29 12
138 12 130 0z m367 -2 c-13 -13 -171 -24 -197 -14 -40 15 4 26 103 26 81 0
103 -3 94 -12z m836 -3 c12 -3 22 -10 22 -15 0 -6 -123 -10 -335 -10 -316 0
-362 4 -321 27 15 8 595 6 634 -2z m-6060 -21 c12 -2 22 -9 22 -14 0 -14 -897
-14 -905 0 -3 6 -4 14 -1 18 5 9 842 5 884 -4z m397 -14 c-3 -5 -28 -10 -56
-10 -27 0 -49 5 -49 10 0 6 25 10 56 10 34 0 53 -4 49 -10z m4415 -15 c-13
-15 -56 -20 -85 -9 -27 11 3 24 54 24 37 0 42 -2 31 -15z m350 -4 c0 -16 -30
-21 -116 -21 -77 0 -95 5 -77 23 10 10 193 8 193 -2z m958 -8 c3 -10 -79 -13
-387 -13 -214 0 -392 4 -395 9 -3 4 -3 11 1 15 4 3 180 5 391 4 298 -2 386 -6
390 -15z m-6090 -20 c3 -10 -90 -13 -442 -13 -244 0 -447 4 -450 9 -3 4 -3 11
1 15 4 3 204 5 446 4 342 -2 441 -6 445 -15z m312 -4 c-28 -5 -48 -5 -54 1 -7
7 9 10 45 9 l54 -1 -45 -9z m4430 -19 c0 -5 -7 -10 -16 -10 -8 0 -12 5 -9 10
3 6 10 10 16 10 5 0 9 -4 9 -10z m355 0 c-3 -6 -50 -10 -106 -10 -64 0 -98 4
-94 10 3 6 50 10 106 10 64 0 98 -4 94 -10z m1020 0 c4 -7 -142 -10 -429 -10
-284 0 -436 3 -436 10 0 7 150 10 429 10 276 0 432 -4 436 -10z m-6102 -25 c2
-10 -855 -20 -881 -10 -7 3 -10 9 -7 15 9 14 884 9 888 -5z m326 -1 c2 -2 -17
-4 -42 -4 -26 0 -47 4 -47 9 0 8 79 3 89 -5z m4721 -25 c0 -5 -44 -9 -100 -9
-127 0 -133 18 -7 22 98 3 107 2 107 -13z m1070 1 c0 -6 -169 -10 -467 -10
-288 0 -463 4 -457 9 15 15 55 16 502 13 267 -1 422 -6 422 -12z m-6110 -25
c0 -13 -53 -15 -419 -15 -231 0 -426 3 -435 6 -51 20 23 24 419 24 380 0 435
-2 435 -15z m319 -1 c2 -2 -15 -4 -38 -4 -25 0 -40 4 -36 10 5 8 63 3 74 -6z
m4691 -20 c0 -11 -19 -14 -94 -14 -101 0 -142 17 -54 22 136 8 148 7 148 -8z
m1116 5 c3 -6 2 -14 -2 -18 -13 -10 -974 -1 -974 9 0 5 8 11 18 13 9 3 227 5
484 6 327 1 469 -2 474 -10z m-6112 -28 c14 -21 -23 -30 -105 -24 -46 3 -236
8 -421 10 -207 2 -338 7 -338 13 0 13 857 13 864 1z m283 -17 c-3 -3 -12 -4
-19 -1 -8 3 -5 6 6 6 11 1 17 -2 13 -5z m4693 -10 c0 -14 -13 -15 -97 -10 -54
3 -100 6 -103 7 -14 5 74 17 133 18 55 1 67 -2 67 -15z m607 -1 c-15 -15 -41
-17 -244 -14 -125 1 -229 4 -231 6 -2 2 -1 8 3 14 4 7 87 11 248 11 227 0 240
-1 224 -17z m472 4 c25 -1 46 -7 49 -14 3 -10 -43 -13 -208 -13 -200 0 -250 6
-250 30 0 7 161 6 409 -3z m-6286 -22 c146 -5 247 -12 247 -18 0 -11 -829 -5
-848 6 -7 5 -10 12 -8 15 5 9 267 7 609 -3z m5207 -25 c0 -14 1 -14 -132 -11
-57 2 -77 5 -63 11 29 12 195 12 195 0z m509 -6 c3 -3 0 -9 -5 -14 -7 -7 -81
-9 -195 -8 -169 3 -184 4 -187 21 -4 18 5 18 190 12 106 -4 195 -9 197 -11z
m589 -6 c-4 -10 -52 -14 -189 -16 -186 -3 -215 0 -204 18 10 16 398 13 393 -2z
m-6330 -17 c187 -1 292 -5 292 -11 0 -13 -836 -14 -844 -1 -11 17 7 19 132 16
70 -2 259 -4 420 -4z m5232 -31 c0 -6 -42 -10 -107 -9 -70 1 -99 4 -83 9 37
12 190 12 190 0z m442 -2 c-9 -9 -56 -13 -159 -13 -108 0 -147 3 -150 13 -4 9
32 12 158 12 130 0 161 -3 151 -12z m618 3 c0 -15 -44 -19 -218 -20 -163 -1
-188 2 -177 20 8 12 395 12 395 0z m-5972 -29 c3 -10 -83 -12 -424 -10 -333 2
-428 6 -432 16 -3 10 83 12 424 10 333 -2 428 -6 432 -16z m4927 -22 c4 -6
-35 -10 -109 -10 -71 0 -116 4 -116 10 0 6 43 10 109 10 63 0 112 -4 116 -10z
m375 0 c0 -6 -48 -10 -125 -10 -77 0 -125 4 -125 10 0 6 48 10 125 10 77 0
125 -4 125 -10z m605 0 c-4 -6 -85 -10 -211 -10 -129 0 -204 4 -204 10 0 6 77
10 211 10 137 0 208 -3 204 -10z m-5882 -25 c-4 -16 -855 -14 -861 3 -3 10 85
12 430 10 282 -2 432 -6 431 -13z m5237 -20 c0 -6 -36 -11 -82 -13 -82 -3
-113 2 -105 15 8 12 187 10 187 -2z m546 6 c56 -16 0 -21 -196 -19 -156 2
-190 5 -170 14 29 14 323 17 366 5z m-866 -11 c0 -12 -186 -12 -215 0 -13 5
23 9 98 9 72 1 117 -3 117 -9z m-4885 -20 c4 -7 -53 -10 -162 -10 -148 -1
-630 -1 -690 0 -13 0 -23 5 -23 10 0 7 151 10 434 10 279 0 437 -4 441 -10z
m4903 -28 c3 -10 -17 -13 -89 -11 -52 1 -110 4 -129 8 -30 5 -24 7 35 12 109
9 178 6 183 -9z m297 3 c0 -6 -34 -11 -77 -13 -66 -2 -78 0 -78 13 0 13 12 15
78 13 43 -2 77 -7 77 -13z m499 6 c11 -17 -27 -21 -200 -21 -159 0 -187 4
-167 23 10 10 361 8 367 -2z m-5594 -39 c32 -6 -21 -10 -185 -13 -126 -2 -248
-1 -270 3 -22 4 -142 7 -267 8 -158 0 -229 3 -234 11 -8 14 880 5 956 -9z
m4817 -17 c3 -9 -54 -11 -195 -7 -30 1 -51 6 -47 11 7 13 239 9 242 -4z m278
0 c0 -12 -78 -19 -112 -10 -13 3 -21 10 -18 16 9 13 130 7 130 -6z m369 6 c10
-16 -54 -31 -131 -31 -74 0 -119 13 -108 31 8 12 232 12 239 0z m-5824 -28
c221 -2 379 -8 384 -13 7 -7 -160 -10 -466 -10 -307 0 -479 4 -483 10 -14 22
8 27 97 22 51 -2 262 -6 468 -9z m5220 -28 c10 -12 9 -16 -4 -21 -15 -6 -44
-4 -219 12 -100 10 -51 24 82 24 102 0 131 -3 141 -15z m260 -10 c0 -15 -102
-13 -108 3 -3 10 9 12 52 10 31 -2 56 -7 56 -13z m213 8 c-7 -2 -19 -2 -25 0
-7 3 -2 5 12 5 14 0 19 -2 13 -5z m-5733 -23 c239 -1 422 -6 405 -10 -44 -11
-903 -12 -909 -1 -8 12 8 17 42 15 15 -1 223 -3 462 -4z m5292 -35 c-1 -6 -34
-10 -75 -9 -187 2 -218 4 -212 14 9 14 291 9 287 -5z m276 -2 c2 -9 -8 -13
-35 -13 -48 0 -83 9 -83 22 0 14 113 5 118 -9z m914 5 c-10 -10 -81 -14 -268
-16 -141 -2 -263 -1 -272 3 -46 18 35 25 282 25 216 0 268 -3 258 -12z m-6241
-15 c143 -6 171 -9 124 -14 -90 -10 -833 -10 -839 0 -3 4 -3 11 1 15 9 8 487
8 714 -1z m5094 -33 c4 -7 -48 -10 -149 -10 -92 0 -157 4 -161 10 -4 7 48 10
149 10 92 0 157 -4 161 -10z m290 0 c4 -6 -16 -10 -54 -10 -33 0 -63 5 -66 10
-4 6 16 10 54 10 33 0 63 -4 66 -10z m724 0 c-12 -7 -383 -14 -537 -10 -7 0
-10 5 -7 10 4 6 109 10 283 10 177 0 271 -4 261 -10z m-6029 -19 l95 -6 -130
-8 c-180 -10 -733 -9 -739 2 -3 4 -3 11 1 15 8 8 647 6 773 -3z m5065 -31 c4
-7 -53 -10 -164 -10 -107 0 -171 4 -171 10 0 6 61 10 164 10 99 0 167 -4 171
-10z m750 0 c-29 -12 -552 -12 -560 0 -4 7 94 10 287 9 173 0 285 -4 273 -9z
m-5802 -16 c59 -4 105 -10 103 -13 -2 -3 -199 -6 -437 -6 -337 0 -433 3 -436
13 -4 9 67 12 330 12 183 0 382 -3 440 -6z m5050 -21 c31 -3 57 -9 57 -14 0
-12 -347 -12 -355 1 -5 8 29 11 205 17 19 1 61 -1 93 -4z m491 -2 c8 -12 -114
-23 -163 -15 -22 4 -38 10 -35 15 7 12 191 12 198 0z m-5524 -41 c31 -5 -8 -8
-130 -10 -96 -1 -197 -3 -225 -4 -111 -2 -426 17 -432 27 -7 12 712 0 787 -13z
m5151 -20 l24 -21 -51 5 c-28 3 -115 6 -194 7 -79 0 -149 3 -156 6 -43 16 6
23 170 23 170 0 186 -2 207 -20z m-5501 -20 c210 -1 362 -5 365 -11 4 -5 -150
-9 -394 -9 -241 0 -401 4 -401 9 0 11 38 20 57 15 7 -2 175 -4 373 -4z m5533
-24 c56 -2 103 -8 110 -15 8 -8 -48 -11 -230 -11 -133 0 -248 3 -257 6 -9 3
-16 12 -16 19 0 12 76 12 393 1z m-560 -3 c-7 -2 -19 -2 -25 0 -7 3 -2 5 12 5
14 0 19 -2 13 -5z m-4903 -24 c196 -1 300 -4 275 -10 -56 -11 -765 -11 -765 0
0 14 14 16 97 14 43 -1 220 -3 393 -4z m4943 -36 c-13 -2 -33 -2 -45 0 -13 2
-3 4 22 4 25 0 35 -2 23 -4z m-4743 -13 l125 -5 -94 -7 c-130 -11 -699 -10
-705 1 -3 4 -2 11 1 15 8 7 463 5 673 -4z m4785 -30 c4 -6 -19 -10 -57 -10
-39 0 -58 4 -49 9 18 12 99 12 106 1z m-4740 -18 l100 -7 -130 -6 c-219 -9
-673 -10 -679 -1 -3 5 -3 12 1 16 9 8 586 8 708 -2z m4785 -32 c0 -12 -120
-12 -165 0 -20 5 1 8 68 9 59 1 97 -3 97 -9z m-4684 -22 c4 -5 5 -10 3 -12 -9
-9 -809 7 -809 16 0 12 795 7 806 -4z m5899 -23 c88 -2 164 -5 168 -5 5 0 5
-5 1 -11 -5 -8 -164 -9 -593 -4 -322 4 -589 9 -594 12 -4 2 -5 9 -1 14 5 9
648 6 1019 -6z m-1181 -5 c-7 -7 -49 -8 -130 -2 l-119 9 130 2 c89 1 126 -2
119 -9z m-4721 -30 c26 -6 -585 -17 -658 -12 -94 7 -155 16 -155 25 0 11 762
-1 813 -13z m4762 -15 c0 -11 -53 -12 -220 -5 l-100 4 100 6 c137 9 220 7 220
-5z m1219 -6 c5 -4 -7 -10 -25 -14 -51 -9 -1001 -1 -1021 9 -10 4 -16 12 -13
17 7 10 1047 -1 1059 -12z m-5964 -29 c10 -6 -138 -10 -428 -10 -293 0 -441 3
-437 10 8 13 844 13 865 0z m4744 -8 c29 -4 51 -13 54 -21 4 -12 -20 -13 -149
-7 -186 9 -235 18 -134 27 100 8 173 8 229 1z m1116 -11 c0 -5 -10 -11 -22
-15 -30 -8 -842 -8 -862 0 -52 20 24 24 434 24 254 0 450 -4 450 -9z m-1018
-56 c-1 -5 -24 -9 -50 -8 -26 1 -112 3 -192 4 -108 2 -131 4 -90 9 84 11 335
7 332 -5z m880 3 c-10 -10 -95 -14 -343 -15 -181 -1 -336 0 -344 3 -49 19 20
24 342 24 286 0 355 -3 345 -12z m-832 -48 c0 -6 -75 -10 -207 -9 -120 1 -197
4 -183 9 38 12 390 12 390 0z m695 0 c-4 -6 -100 -10 -256 -10 -159 0 -249 4
-249 10 0 6 92 10 256 10 167 0 253 -3 249 -10z m-640 -50 c7 -12 -367 -12
-405 0 -14 5 65 8 187 9 131 1 214 -3 218 -9z m440 0 c-28 -12 -212 -12 -220
0 -4 6 37 10 117 9 78 0 116 -4 103 -9z m-394 -40 c10 0 19 -5 19 -10 0 -7
-67 -10 -197 -9 -283 3 -325 13 -78 19 116 3 216 4 223 3 8 -2 22 -3 33 -3z
m71 -53 c21 -7 41 -17 45 -21 9 -9 -270 -2 -437 11 l-105 8 100 6 c199 11 359
9 397 -4z m-517 -57 c4 -6 -7 -10 -24 -10 -17 0 -31 5 -31 10 0 6 11 10 24 10
14 0 28 -4 31 -10z m-628 -56 c9 -12 13 -52 13 -130 0 -94 -4 -122 -24 -175
-42 -111 -75 -162 -163 -251 -67 -67 -102 -94 -157 -120 l-71 -33 -170 0 -170
0 -50 29 c-127 75 -188 138 -247 254 -41 81 -42 86 -48 206 -3 68 -3 131 -2
140 5 25 40 35 154 42 124 8 127 6 134 -96 9 -131 49 -190 130 -190 111 0 154
59 154 213 0 117 -1 117 137 118 54 1 136 5 183 9 121 11 180 7 197 -16z
m-1926 -54 c14 -8 19 -21 19 -53 0 -104 -47 -279 -95 -357 -38 -60 -111 -134
-156 -158 -79 -43 -208 -66 -384 -70 -142 -3 -169 -1 -235 19 -41 12 -100 34
-130 50 -84 42 -251 222 -284 304 -4 11 -11 43 -16 70 -10 65 8 105 48 105 15
1 128 7 252 14 132 8 234 10 248 5 13 -5 31 -23 40 -41 29 -54 82 -107 110
-110 64 -8 118 37 143 120 7 23 18 47 24 52 6 5 59 14 116 20 57 6 131 16 164
24 74 18 111 19 136 6z m619 -526 c13 -13 13 -18 0 -41 -20 -35 -81 -49 -151
-34 -78 17 -122 55 -88 77 39 24 214 23 239 -2z m3034 -117 c-4 -11 -59 -13
-292 -9 -464 6 -512 19 -80 21 311 1 376 -1 372 -12z m-271 -44 c142 -3 257
-10 257 -15 0 -10 -511 -3 -765 10 l-160 8 206 2 c113 1 321 -1 462 -5z m234
-61 c-2 -8 -710 -10 -922 -4 -71 2 -122 7 -111 11 23 9 1037 2 1033 -7z m1
-44 c-5 -14 -275 -17 -728 -8 -200 4 -198 5 120 10 179 3 390 7 469 8 117 3
142 1 139 -10z m-5781 -24 c-3 -3 -12 -4 -19 -1 -8 3 -5 6 6 6 11 1 17 -2 13
-5z m5773 -23 c0 -14 -21 -18 -90 -15 -36 2 -238 4 -450 6 -357 2 -369 3 -160
8 397 10 700 10 700 1z m-10 -51 c0 -7 -143 -9 -412 -8 -245 1 -364 4 -293 8
216 11 705 11 705 0z m-5670 -30 c0 -5 -24 -10 -54 -10 -30 0 -58 5 -61 10 -4
6 17 10 54 10 34 0 61 -4 61 -10z m5667 -22 c-2 -9 -31 -13 -98 -12 -428 2
-519 5 -519 14 0 6 110 10 311 10 244 0 310 -3 306 -12z m473 -8 c-20 -13
-330 -13 -330 0 0 6 64 10 173 10 115 0 167 -4 157 -10z m-6247 -27 c-7 -2
-21 -2 -30 0 -10 3 -4 5 12 5 17 0 24 -2 18 -5z m5564 -13 c122 0 193 -4 193
-10 0 -6 -103 -10 -289 -10 -257 0 -290 2 -302 17 -13 15 -6 16 95 10 60 -4
196 -7 303 -7z m593 -10 c-20 -13 -240 -13 -240 0 0 6 49 10 128 10 86 0 122
-3 112 -10z m-415 -50 c-7 -11 -178 -11 -350 0 -94 6 -75 7 123 8 153 1 231
-1 227 -8z m325 0 c-36 -12 -138 -12 -145 0 -4 6 25 10 82 9 59 -1 80 -4 63
-9z m-333 -43 c-2 -8 -30 -11 -83 -10 -43 1 -117 3 -164 4 -78 2 -81 3 -30 8
107 12 281 10 277 -2z m238 3 c-3 -5 -15 -10 -26 -10 -10 0 -19 5 -19 10 0 6
12 10 26 10 14 0 23 -4 19 -10z m-968 -6 c-3 -3 -12 -4 -19 -1 -8 3 -5 6 6 6
11 1 17 -2 13 -5z m116 -1 c-18 -2 -48 -2 -65 0 -18 2 -4 4 32 4 36 0 50 -2
33 -4z m607 -43 c0 -5 -13 -10 -30 -10 -16 0 -30 5 -30 10 0 6 14 10 30 10 17
0 30 -4 30 -10z m-522 -7 c-60 -2 -156 -2 -215 0 -60 1 -11 3 107 3 118 0 167
-2 108 -3z m151 -43 c14 -5 -77 -8 -204 -8 -137 1 -208 4 -175 8 75 10 347 9
379 0z m-5299 -30 c19 -12 -213 -12 -250 0 -15 5 25 8 105 9 72 0 137 -4 145
-9z m138 -7 c-10 -2 -26 -2 -35 0 -10 3 -2 5 17 5 19 0 27 -2 18 -5z m5411
-18 c13 -13 -705 -8 -759 5 -20 5 131 8 357 7 252 -1 396 -6 402 -12z m-251
-42 c165 -3 289 -10 284 -15 -12 -12 -907 2 -987 16 -38 6 410 6 703 -1z
m-170 -53 c253 0 381 -3 377 -10 -4 -6 -99 -10 -253 -10 -356 0 -682 11 -675
23 3 6 38 7 87 3 45 -3 253 -6 464 -6z m297 -60 c-19 -8 -695 -2 -704 6 -2 2
160 4 360 3 204 0 355 -4 344 -9z m-70 -39 c6 -1 5 -5 -2 -9 -6 -4 -132 -5
-280 -2 l-268 5 180 5 c149 4 326 4 370 1z m350 -1 c4 -6 -10 -9 -37 -9 l-43
2 35 7 c19 4 36 8 37 9 1 0 5 -3 8 -9z m-425 -50 c0 -6 -78 -9 -217 -8 -152 1
-194 4 -138 8 137 11 355 11 355 0z m440 0 c0 -6 -52 -10 -137 -9 -88 1 -125
4 -103 9 55 12 240 12 240 0z m-6 -60 c8 -10 -43 -11 -229 -6 -132 3 -293 6
-358 6 -83 0 -116 3 -111 11 10 16 682 5 698 -11z m-4986 -27 c-64 -2 -172 -2
-240 0 -68 1 -15 3 117 3 132 0 187 -2 123 -3z m4296 -9 c24 -9 10 -22 -19
-17 -13 3 -22 9 -19 14 6 11 16 11 38 3z m706 -14 c0 -6 -120 -10 -340 -10
-220 0 -340 4 -340 10 0 6 120 10 340 10 220 0 340 -4 340 -10z m-5417 -27
c-7 -2 -21 -2 -30 0 -10 3 -4 5 12 5 17 0 24 -2 18 -5z m454 0 c-81 -2 -213
-2 -295 0 -81 1 -14 3 148 3 162 0 229 -2 147 -3z m3506 -10 c-7 -2 -19 -2
-25 0 -7 3 -2 5 12 5 14 0 19 -2 13 -5z m80 0 c-13 -2 -33 -2 -45 0 -13 2 -3
4 22 4 25 0 35 -2 23 -4z m217 -3 c59 -6 55 -7 -50 -8 -63 -1 -122 3 -130 8
-18 11 79 12 180 0z m198 -7 c-21 -2 -57 -2 -80 0 -24 2 -7 4 37 4 44 0 63 -2
43 -4z m972 -3 c0 -12 -564 -12 -645 0 -28 4 103 8 298 9 232 1 347 -2 347 -9z
m-5884 -22 c7 -11 -357 -9 -381 2 -13 6 53 9 178 8 109 -2 201 -6 203 -10z
m1009 2 c59 -5 -22 -7 -240 -7 -181 0 -301 3 -265 7 96 8 402 9 505 0z m-588
-6 c-3 -3 -12 -4 -19 -1 -8 3 -5 6 6 6 11 1 17 -2 13 -5z m826 -1 c-7 -2 -19
-2 -25 0 -7 3 -2 5 12 5 14 0 19 -2 13 -5z m2842 -13 c-3 -5 -15 -10 -26 -10
-10 0 -19 5 -19 10 0 6 12 10 26 10 14 0 23 -4 19 -10z m1795 -7 c0 -8 -1469
-7 -1555 0 -22 2 319 4 758 5 438 1 797 -1 797 -5z m-5890 -23 c-18 -12 -137
-12 -165 0 -13 6 15 9 80 9 68 1 95 -2 85 -9z m143 3 c-7 -2 -19 -2 -25 0 -7
3 -2 5 12 5 14 0 19 -2 13 -5z m102 -3 c-27 -4 -54 -3 -59 1 -6 5 15 8 50 8
l59 -2 -50 -7z m900 -9 c21 -8 -89 -9 -379 -5 -224 3 -418 10 -430 15 -30 13
770 3 809 -10z m4746 -10 c15 -6 -283 -9 -826 -8 -467 1 -767 4 -665 7 347 10
1467 11 1491 1z m389 -1 c0 -6 -51 -10 -135 -10 -76 0 -135 4 -135 9 0 5 59
10 135 10 85 1 135 -3 135 -9z m-2347 -7 c-7 -2 -19 -2 -25 0 -7 3 -2 5 12 5
14 0 19 -2 13 -5z m-4363 -23 c0 -6 -30 -10 -71 -10 -44 0 -68 4 -64 10 3 6
35 10 71 10 36 0 64 -4 64 -10z m1365 -1 c164 0 262 -4 250 -9 -28 -12 -973
-11 -981 1 -3 6 -55 9 -120 8 -63 -1 -118 2 -122 6 -4 4 153 5 348 1 195 -3
477 -6 625 -7z m4973 -28 c3 -10 -1 -12 -19 -8 -13 4 -418 7 -899 7 -550 0
-869 4 -860 10 9 5 359 8 894 7 744 -2 880 -4 884 -16z m390 4 c34 -1 65 -5
69 -9 3 -3 -80 -6 -185 -6 -106 0 -192 4 -192 8 0 21 22 24 130 17 63 -4 143
-8 178 -10z m-2455 -2 c-7 -2 -21 -2 -30 0 -10 3 -4 5 12 5 17 0 24 -2 18 -5z
m80 0 c-7 -2 -19 -2 -25 0 -7 3 -2 5 12 5 14 0 19 -2 13 -5z m-4132 -17 c82
-11 59 -28 -28 -22 -43 4 -163 8 -268 10 -104 2 -194 5 -200 6 -68 14 391 20
496 6z m1414 -17 c-118 -11 -1117 -10 -1135 1 -10 6 207 9 600 8 355 0 581 -4
535 -9z m2629 -9 c-6 -6 -21 -6 -39 -1 -30 9 -30 9 10 10 25 1 36 -2 29 -9z
m2082 -3 c4 -4 5 -9 3 -11 -9 -10 -1869 7 -1869 17 0 11 1855 6 1866 -6z
m-6456 -21 l32 -13 -48 -6 c-71 -9 -234 -6 -240 4 -17 28 196 41 256 15z m368
-6 c66 0 112 -4 112 -10 0 -11 -187 -13 -265 -3 -42 6 -46 8 -25 14 14 4 34 6
45 3 11 -2 71 -4 133 -4z m1327 -11 c-187 -10 -1021 -8 -1038 3 -7 4 258 7
588 6 431 -1 558 -3 450 -9z m2552 -5 c-3 -3 -12 -4 -19 -1 -8 3 -5 6 6 6 11
1 17 -2 13 -5z m1661 -1 c391 -3 712 -10 712 -15 0 -10 -496 -10 -1417 -1
-376 3 -683 10 -683 15 0 10 432 10 1388 1z m-5983 -33 c4 -6 -39 -10 -122 -9
-81 0 -121 4 -108 9 28 12 222 12 230 0z m621 -3 c4 -4 -39 -7 -95 -7 -61 0
-100 4 -96 9 6 11 181 9 191 -2z m1084 4 c117 -6 24 -8 -387 -9 -299 -1 -543
1 -543 6 0 10 740 13 930 3z m3473 -28 c-5 -12 -22 -14 -97 -9 -50 3 -200 6
-333 8 -134 2 -243 6 -243 10 0 8 574 16 642 10 28 -3 35 -8 31 -19z m52 17
c3 -5 -1 -10 -10 -10 -9 0 -13 5 -10 10 3 6 8 10 10 10 2 0 7 -4 10 -10z
m-962 -7 c-7 -2 -19 -2 -25 0 -7 3 -2 5 12 5 14 0 19 -2 13 -5z m2407 -13 c0
-12 -1248 -12 -1325 0 -27 4 259 8 638 9 452 1 687 -2 687 -9z m-6675 -20 c4
-6 -47 -10 -144 -10 -94 0 -151 4 -151 10 0 6 55 10 144 10 86 0 147 -4 151
-10z m675 0 c0 -6 -32 -10 -75 -10 -43 0 -75 4 -75 10 0 6 32 10 75 10 43 0
75 -4 75 -10z m1088 3 c67 -3 122 -10 122 -14 0 -5 -66 -7 -147 -5 -82 2 -323
4 -538 5 -256 1 -385 5 -375 11 17 11 747 14 938 3z m-1570 -10 c-16 -2 -40
-2 -55 0 -16 2 -3 4 27 4 30 0 43 -2 28 -4z m4762 -12 c138 -4 218 -9 207 -15
-19 -9 -618 -1 -712 11 -96 11 -24 19 139 14 78 -2 242 -6 366 -10z m696 -9
c-7 -12 -116 -13 -116 -2 0 6 27 10 61 10 33 0 58 -4 55 -8z m1014 -2 c0 -12
-788 -12 -910 0 -41 4 147 7 418 8 322 1 492 -1 492 -8z m-6275 -20 c4 -7
-120 -10 -365 -10 -245 0 -369 3 -365 10 8 14 722 14 730 0z m325 0 c0 -6 -26
-10 -59 -10 -33 0 -63 5 -66 10 -4 6 18 10 59 10 37 0 66 -4 66 -10z m959 -5
c51 -2 96 -7 100 -11 3 -4 -190 -4 -429 0 -239 3 -450 6 -467 6 -18 0 -33 5
-33 12 0 8 92 9 368 4 202 -4 409 -9 461 -11z m3491 -15 c0 -5 -5 -10 -11 -10
-5 0 -7 5 -4 10 3 6 8 10 11 10 2 0 4 -4 4 -10z m477 -4 c4 -3 -19 -6 -51 -6
-31 0 -55 3 -52 8 5 9 94 8 103 -2z m1022 -2 c2 -2 -146 -3 -330 -2 l-334 3
270 5 c258 5 385 3 394 -6z m-1766 -1 c-83 -2 -223 -2 -310 0 -87 1 -18 3 152
3 171 0 242 -2 158 -3z m-4418 -22 c3 -6 -159 -10 -425 -11 -288 0 -430 3
-430 10 0 13 846 14 855 1z m265 -1 c0 -13 -90 -13 -110 0 -11 7 3 10 48 10
35 0 62 -4 62 -10z m573 0 c264 0 388 -3 381 -10 -7 -7 -153 -9 -419 -8 -340
3 -409 5 -413 17 -4 11 3 13 28 8 18 -4 208 -7 423 -7z m3722 -20 c4 -7 -93
-10 -285 -10 -192 0 -289 3 -285 10 4 6 110 10 285 10 175 0 281 -4 285 -10z
m595 -1 c0 -11 -68 -11 -95 1 -14 6 -3 8 38 8 31 0 57 -4 57 -9z m978 -2 c23
-2 46 -8 50 -12 4 -4 -103 -5 -237 -1 -134 3 -284 6 -333 6 -53 0 -88 4 -88
10 0 10 501 7 608 -3z m-2281 -3 c-3 -3 -12 -4 -19 -1 -8 3 -5 6 6 6 11 1 17
-2 13 -5z m-3889 -21 c63 -3 112 -10 112 -16 0 -7 -59 -8 -172 -3 -95 4 -270
10 -388 12 -118 3 -216 7 -219 9 -7 7 539 6 667 -2z m332 -13 c0 -5 -38 -9
-90 -8 -49 0 -90 5 -90 9 0 5 41 9 90 9 52 0 90 -4 90 -10z m845 -1 c-145 -11
-723 -10 -730 2 -4 5 152 8 412 7 287 -1 387 -3 318 -9z m3713 -27 l3 -33 -43
3 c-41 3 -43 5 -46 36 l-3 34 43 -4 c40 -3 43 -5 46 -36z m-988 18 c0 -5 -2
-10 -4 -10 -3 0 -8 5 -11 10 -3 6 -1 10 4 10 6 0 11 -4 11 -10z m690 0 c0 -6
-98 -10 -275 -10 -177 0 -275 4 -275 10 0 6 98 10 275 10 177 0 275 -4 275
-10z m1353 0 c183 1 267 -2 267 -9 0 -12 -615 -16 -644 -5 -9 3 -16 11 -16 16
0 7 21 8 63 3 34 -4 182 -6 330 -5z m-6029 -30 c242 0 437 -2 434 -5 -6 -7
-960 -7 -966 0 -2 2 -1 8 2 13 3 6 23 6 48 1 24 -4 241 -8 482 -9z m1138 -7
c-112 -2 -292 -2 -400 0 -108 1 -17 2 203 2 220 0 309 -1 197 -2z m4296 -36
c4 -33 -14 -42 -63 -33 -30 6 -35 11 -35 35 0 37 3 38 52 32 38 -5 43 -9 46
-34z m-1411 27 c-3 -3 -12 -4 -19 -1 -8 3 -5 6 6 6 11 1 17 -2 13 -5z m643 -3
c0 -12 -508 -13 -515 -1 -4 6 89 10 254 10 144 0 261 -4 261 -9z m-5597 -30
c8 -8 -12 -11 -71 -11 -45 0 -82 2 -82 5 0 2 15 9 33 14 38 12 105 7 120 -8z
m317 0 c26 -7 4 -9 -88 -10 -68 -1 -121 3 -118 8 7 11 162 13 206 2z m1056 -2
c3 -5 -205 -9 -503 -9 -332 0 -503 4 -493 10 19 12 988 11 996 -1z m809 1 c39
-4 -105 -8 -318 -8 -268 -2 -386 1 -382 8 7 12 577 11 700 0z m2783 -17 c-10
-2 -28 -2 -40 0 -13 2 -5 4 17 4 22 1 32 -1 23 -4z m630 -5 c-5 -15 -78 -23
-78 -9 0 6 -73 10 -206 9 -113 0 -208 3 -211 6 -4 3 107 6 246 6 193 0 252 -3
249 -12z m-5608 -28 c0 -6 -49 -10 -127 -10 -87 0 -123 3 -113 10 20 13 240
13 240 0z m1140 0 c0 -7 -178 -10 -515 -10 -337 0 -515 3 -515 10 0 7 178 10
515 10 337 0 515 -3 515 -10z m250 0 c0 -6 -28 -10 -65 -10 -37 0 -65 4 -65
10 0 6 28 10 65 10 37 0 65 -4 65 -10z m869 1 c31 -3 52 -9 46 -12 -18 -10
-805 2 -805 13 0 10 662 9 759 -1z m3123 -20 l223 -8 -242 -1 c-134 -1 -243 2
-243 6 0 14 11 21 25 16 8 -3 114 -9 237 -13z m-394 2 c-15 -2 -42 -2 -60 0
-18 2 -6 4 27 4 33 0 48 -2 33 -4z m-4998 -33 c0 -6 -58 -10 -155 -10 -97 0
-155 4 -155 10 0 6 58 10 155 10 97 0 155 -4 155 -10z m1170 0 c0 -7 -183 -10
-530 -10 -347 0 -530 3 -530 10 0 7 183 10 530 10 347 0 530 -3 530 -10z m230
0 c0 -5 -20 -10 -45 -10 -25 0 -45 5 -45 10 0 6 20 10 45 10 25 0 45 -4 45
-10z m765 -10 c50 -5 6 -7 -150 -8 -272 -2 -505 8 -505 21 0 11 527 1 655 -13z
m3435 -12 c0 -5 -105 -8 -232 -8 -128 0 -228 4 -221 8 15 9 453 9 453 0z
m-593 -5 c-20 -2 -52 -2 -70 0 -17 2 0 4 38 4 39 0 53 -2 32 -4z m-5002 -22
c-8 -13 -375 -14 -375 -1 0 6 66 10 191 10 113 0 188 -4 184 -9z m1213 -10 c3
-10 -2 -12 -20 -8 -13 4 -261 7 -551 7 -324 1 -529 5 -532 11 -4 6 196 8 546
7 461 -3 553 -5 557 -17z m187 9 c3 -6 -1 -13 -9 -16 -21 -8 -66 3 -66 16 0
13 67 13 75 0z m775 -10 c-38 -12 -670 -12 -670 0 0 6 122 10 348 9 191 -1
336 -5 322 -9z m2865 -10 c4 -6 -24 -9 -77 -8 -80 1 -81 2 -28 8 87 11 98 11
105 0z m560 0 c4 -7 -73 -10 -225 -10 -152 0 -229 3 -225 10 4 6 90 10 225 10
135 0 221 -4 225 -10z m-4457 -29 c62 0 102 -5 102 -11 0 -10 -324 -8 -710 5
-80 2 -199 5 -265 5 -66 0 -115 4 -108 8 6 4 206 4 445 1 238 -4 479 -7 536
-8z m244 -13 c-9 -9 -15 -9 -24 0 -9 9 -7 12 12 12 19 0 21 -3 12 -12z m763 2
c-177 -12 -655 -11 -655 0 0 7 133 9 383 8 260 -1 347 -4 272 -8z m2905 -10
c0 -6 -32 -10 -75 -10 -43 0 -75 4 -75 10 0 6 32 10 75 10 43 0 75 -4 75 -10z
m650 0 c0 -6 -98 -10 -275 -10 -177 0 -275 4 -275 10 0 6 98 10 275 10 177 0
275 -4 275 -10z m-4862 -26 c232 -3 422 -8 422 -12 0 -4 -179 -6 -397 -5 -219
1 -464 3 -545 3 -85 0 -148 4 -148 9 0 13 40 17 150 12 52 -2 285 -5 518 -7z
m1371 -9 c-7 -7 -719 -8 -726 -1 -4 3 159 6 362 6 203 0 366 -2 364 -5z m2841
-16 c0 -9 -138 -3 -149 7 -2 2 30 4 72 4 48 0 77 -4 77 -11z m640 1 c0 -6 -93
-10 -259 -10 -163 0 -262 4 -266 10 -4 7 85 10 259 10 171 0 266 -4 266 -10z
m-3625 -33 c50 -2 -64 -4 -253 -5 -189 -1 -341 1 -339 6 5 6 370 6 592 -1z
m2963 -14 c-21 -2 -55 -2 -75 0 -21 2 -4 4 37 4 41 0 58 -2 38 -4z m630 0 c94
-4 149 -10 145 -16 -6 -10 -339 -2 -538 12 -96 7 -93 8 71 9 94 1 239 -1 322
-5z m-3617 -31 c132 -11 2 -17 -288 -14 -196 2 -293 6 -293 13 0 11 446 11
581 1z m147 -9 c-16 -2 -40 -2 -55 0 -16 2 -3 4 27 4 30 0 43 -2 28 -4z m2882
-13 c0 -5 -25 -10 -55 -10 -30 0 -55 5 -55 10 0 6 25 10 55 10 30 0 55 -4 55
-10z m727 -7 c-7 -7 -619 -4 -626 3 -2 2 139 4 314 4 175 0 315 -3 312 -7z
m-3882 -27 c82 -4 152 -10 155 -13 11 -12 -612 5 -624 17 -12 12 152 10 469
-4z m3128 -23 c-13 -2 -33 -2 -45 0 -13 2 -3 4 22 4 25 0 35 -2 23 -4z m595 0
c-87 -2 -229 -2 -315 0 -87 1 -16 3 157 3 173 0 244 -2 158 -3z m-4364 -19
c25 -4 46 -10 46 -14 0 -13 -125 -9 -150 5 -25 14 -25 14 16 15 23 0 62 -3 88
-6z m76 -14 c0 -5 -4 -10 -10 -10 -5 0 -10 5 -10 10 0 6 5 10 10 10 6 0 10 -4
10 -10z m590 0 c9 -5 -80 -9 -228 -10 -149 0 -242 3 -242 9 0 13 450 13 470 1z
m3960 -12 c0 -5 -162 -8 -360 -8 -198 0 -360 3 -360 8 0 4 162 7 360 7 198 0
360 -3 360 -7z m-847 -5 c-7 -2 -19 -2 -25 0 -7 3 -2 5 12 5 14 0 19 -2 13 -5z
m-3693 -31 c0 -4 -36 -8 -80 -7 -44 0 -80 3 -80 8 0 4 36 7 80 7 44 0 80 -4
80 -8z m599 4 c-7 -8 -469 -10 -476 -3 -3 4 103 7 237 7 134 0 241 -2 239 -4z
m3256 -16 c3 -5 -3 -10 -14 -10 -12 0 -21 5 -21 10 0 6 6 10 14 10 8 0 18 -4
21 -10z m679 -1 c-8 -13 -664 -12 -664 1 0 8 107 10 335 9 193 -1 332 -5 329
-10z m-4566 -36 c-32 -2 -86 -2 -120 0 -35 2 -9 3 57 3 66 0 94 -1 63 -3z
m520 0 c-65 -2 -171 -2 -235 0 -65 1 -12 3 117 3 129 0 182 -2 118 -3z m4097
-18 l60 -14 -100 5 c-55 3 -242 8 -415 12 l-315 8 355 1 c272 1 369 -2 415
-12z m-5415 -21 c426 -2 798 -6 825 -7 28 -2 -344 -4 -825 -5 -481 -1 -885 1
-897 4 -44 12 -13 21 54 17 38 -3 417 -7 843 -9z m1323 -11 c-62 -2 -165 -2
-230 0 -65 1 -14 3 112 3 127 0 180 -2 118 -3z m3934 -13 c117 0 213 -3 213
-7 0 -11 -650 -5 -745 6 -65 8 -42 9 119 5 110 -2 295 -4 413 -4z m-3817 -29
c55 -2 75 -5 55 -10 -44 -9 -505 -2 -505 9 0 7 206 8 450 1z m3085 -21 c3 -6
-4 -10 -17 -10 -18 0 -20 2 -8 10 19 12 18 12 25 0z m743 -7 c-114 -2 -303 -2
-420 0 -117 1 -24 2 207 2 231 0 327 -1 213 -2z m-3983 -29 c72 -3 132 -8 134
-10 2 -2 -93 -4 -212 -4 -188 0 -217 2 -217 15 0 13 13 15 83 10 45 -2 141 -7
212 -11z m3273 -21 c-10 -2 -26 -2 -35 0 -10 3 -2 5 17 5 19 0 27 -2 18 -5z
m-3188 -33 c-38 -12 -380 -12 -380 0 0 6 74 10 203 9 117 -1 191 -4 177 -9z
m-55 -50 c-111 -12 -355 -11 -355 0 0 6 76 9 213 8 152 -1 192 -3 142 -8z
m-67 -47 c-60 -2 -156 -2 -215 0 -60 1 -11 3 107 3 118 0 167 -2 108 -3z
m-635 -50 c-89 -2 -237 -2 -330 0 -92 1 -19 3 162 3 182 0 257 -2 168 -3z
m600 0 c-56 -2 -151 -2 -210 0 -59 1 -13 3 102 3 116 0 164 -2 108 -3z m4105
-13 c217 0 311 -3 307 -11 -9 -14 -989 -5 -1030 10 -23 8 23 10 190 6 121 -3
361 -5 533 -5z m677 -9 c-7 -12 -213 -13 -240 -1 -12 5 30 9 113 9 80 1 131
-3 127 -8z m-6000 -21 c4 -6 -5 -10 -20 -10 -15 0 -24 4 -20 10 3 6 12 10 20
10 8 0 17 -4 20 -10z m715 -4 c8 -2 -122 -4 -290 -4 -168 0 -295 3 -282 6 24
7 545 5 572 -2z m410 0 c19 -1 -32 -3 -115 -3 -82 0 -134 2 -115 6 32 6 152 4
230 -3z m103 -3 c-7 -2 -19 -2 -25 0 -7 3 -2 5 12 5 14 0 19 -2 13 -5z m4120
-20 c-134 -2 -352 -2 -485 0 -134 1 -25 2 242 2 267 0 376 -1 243 -2z m600 0
c-29 -2 -77 -2 -105 0 -29 2 -6 3 52 3 58 0 81 -1 53 -3z m-5976 -25 c-18 -11
-815 -10 -822 2 -3 5 151 8 415 7 231 0 414 -5 407 -9z m209 0 c4 -5 -12 -8
-35 -8 -23 0 -40 3 -38 8 3 4 19 7 35 7 17 0 34 -3 38 -7z m318 1 c-7 -11
-304 -12 -304 -1 0 5 70 9 155 10 92 0 153 -3 149 -9z m66 1 c0 -5 -11 -10
-25 -10 -14 0 -25 5 -25 10 0 6 11 10 25 10 14 0 25 -4 25 -10z m86 -2 c4 -5
-4 -8 -19 -8 -14 0 -28 4 -31 8 -6 10 40 10 50 0z m352 6 c40 -8 23 -24 -25
-24 -68 0 -156 12 -145 19 13 8 140 12 170 5z m85 -21 c-7 -2 -19 -2 -25 0 -7
3 -2 5 12 5 14 0 19 -2 13 -5z m75 0 c-10 -2 -26 -2 -35 0 -10 3 -2 5 17 5 19
0 27 -2 18 -5z m49 1 c-3 -3 -12 -4 -19 -1 -8 3 -5 6 6 6 11 1 17 -2 13 -5z
m4126 -11 c-127 -2 -339 -2 -470 0 -131 1 -26 2 232 2 259 0 366 -1 238 -2z
m380 0 c-13 -2 -35 -2 -50 0 -16 2 -5 4 22 4 28 0 40 -2 28 -4z m235 0 c-26
-2 -71 -2 -100 0 -29 2 -8 3 47 3 55 0 79 -1 53 -3z m-5428 -27 c10 -13 2 -14
-52 -11 -35 2 -133 7 -218 10 -85 4 -157 9 -159 11 -2 2 90 4 206 4 171 0 213
-3 223 -14z m50 -6 c13 -8 13 -10 -2 -10 -9 0 -20 5 -23 10 -8 13 5 13 25 0z
m434 0 c-25 -10 -214 -9 -214 1 0 4 53 7 118 7 72 0 109 -3 96 -8z m66 0 c0
-5 -5 -10 -11 -10 -5 0 -7 5 -4 10 3 6 8 10 11 10 2 0 4 -4 4 -10z m67 -6 c-3
-3 -12 -4 -19 -1 -8 3 -5 6 6 6 11 1 17 -2 13 -5z m4568 -4 c-3 -5 -11 -10
-16 -10 -6 0 -7 5 -4 10 3 6 11 10 16 10 6 0 7 -4 4 -10z m-377 -7 c-131 -2
-345 -2 -475 0 -131 1 -24 2 237 2 261 0 368 -1 238 -2z m600 0 c-27 -2 -69
-2 -95 0 -27 2 -5 3 47 3 52 0 74 -1 48 -3z m307 -3 c20 -5 -1 -8 -67 -9 -55
0 -99 3 -103 9 -7 12 124 12 170 0z m103 -7 c-10 -2 -26 -2 -35 0 -10 3 -2 5
17 5 19 0 27 -2 18 -5z m65 0 c-7 -2 -21 -2 -30 0 -10 3 -4 5 12 5 17 0 24 -2
18 -5z m-6423 -10 c0 -7 -762 -6 -855 1 -22 1 161 3 408 4 246 1 447 -1 447
-5z m258 -10 c-21 -2 -57 -2 -80 0 -24 2 -7 4 37 4 44 0 63 -2 43 -4z m175 0
c-23 -2 -64 -2 -90 0 -26 2 -7 3 42 3 50 0 71 -1 48 -3z m74 1 c-3 -3 -12 -4
-19 -1 -8 3 -5 6 6 6 11 1 17 -2 13 -5z m426 -1 c-35 -2 -91 -2 -125 0 -35 2
-7 3 62 3 69 0 97 -1 63 -3z m174 0 c-20 -2 -52 -2 -70 0 -17 2 0 4 38 4 39 0
53 -2 32 -4z m4413 -13 c0 -5 -4 -10 -10 -10 -5 0 -10 5 -10 10 0 6 5 10 10
10 6 0 10 -4 10 -10z m115 -12 c6 -6 0 -8 -19 -6 -16 2 -31 9 -34 17 -3 10 2
11 19 6 13 -4 29 -12 34 -17z m-662 5 c-24 -2 -62 -2 -85 0 -24 2 -5 4 42 4
47 0 66 -2 43 -4z m74 1 c-3 -3 -12 -4 -19 -1 -8 3 -5 6 6 6 11 1 17 -2 13 -5z
m763 -10 c0 -2 -7 -4 -15 -4 -8 0 -15 4 -15 10 0 5 7 7 15 4 8 -4 15 -8 15
-10z m118 -1 c-21 -2 -55 -2 -75 0 -21 2 -4 4 37 4 41 0 58 -2 38 -4z m225 0
c-13 -2 -33 -2 -45 0 -13 2 -3 4 22 4 25 0 35 -2 23 -4z m145 0 c-21 -2 -57
-2 -80 0 -24 2 -7 4 37 4 44 0 63 -2 43 -4z m85 0 c-7 -2 -21 -2 -30 0 -10 3
-4 5 12 5 17 0 24 -2 18 -5z m-6394 -19 c7 -7 -536 -2 -694 6 -86 4 28 5 270
3 231 -3 422 -7 424 -9z m384 -1 c-51 -2 -135 -2 -186 0 -50 1 -9 3 93 3 102
0 143 -2 93 -3z m640 0 c-62 -2 -165 -2 -230 0 -65 1 -14 3 112 3 127 0 180
-2 118 -3z m4225 -9 c136 -10 111 -24 -30 -19 -68 3 -190 8 -273 11 -82 2
-161 6 -175 8 -49 6 389 6 478 0z m342 -15 c0 -6 -46 -9 -120 -7 -66 1 -120 6
-120 10 0 4 54 8 120 7 72 0 120 -4 120 -10z m310 1 c0 -5 -68 -9 -151 -9 -83
-1 -148 2 -145 7 6 10 296 12 296 2z m25 0 c3 -5 1 -10 -4 -10 -6 0 -11 5 -11
10 0 6 2 10 4 10 3 0 8 -4 11 -10z m560 0 c-7 -12 -358 -12 -375 0 -10 7 45
10 182 9 109 -1 196 -5 193 -9z m71 -3 c4 -4 -8 -7 -27 -7 -23 0 -30 3 -20 9
15 10 37 9 47 -2z m-6759 -24 c-108 -2 -286 -2 -395 0 -108 1 -19 2 198 2 217
0 306 -1 197 -2z m481 0 c-32 -2 -86 -2 -120 0 -35 2 -9 3 57 3 66 0 94 -1 63
-3z m690 0 c-64 -2 -172 -2 -240 0 -68 1 -15 3 117 3 132 0 187 -2 123 -3z
m3772 -13 c10 -7 -8 -9 -60 -8 -72 1 -73 1 -25 8 28 4 55 7 60 8 6 1 17 -3 25
-8z m103 -7 c-13 -2 -33 -2 -45 0 -13 2 -3 4 22 4 25 0 35 -2 23 -4z m825 0
c-148 -2 -388 -2 -535 0 -148 1 -27 2 267 2 294 0 415 -1 268 -2z m-5708 -29
c0 -2 -159 -3 -352 -2 l-353 3 340 5 c318 5 365 4 365 -6z m193 -1 c-13 -2
-33 -2 -45 0 -13 2 -3 4 22 4 25 0 35 -2 23 -4z m770 0 c-72 -2 -194 -2 -270
0 -76 1 -16 3 132 3 149 0 211 -2 138 -3z m4685 -20 c-158 -2 -419 -2 -580 0
-161 1 -32 2 287 2 319 0 451 -1 293 -2z m325 0 c-7 -2 -19 -2 -25 0 -7 3 -2
5 12 5 14 0 19 -2 13 -5z m220 0 c-7 -2 -19 -2 -25 0 -7 3 -2 5 12 5 14 0 19
-2 13 -5z m-6597 -22 c-7 -11 -211 -9 -222 2 -4 4 45 7 110 7 68 0 115 -4 112
-9z m384 1 c0 -4 -63 -8 -140 -9 -82 -1 -140 2 -140 8 0 5 59 9 140 9 77 0
140 -4 140 -8z m1065 -10 c16 -10 -26 -11 -195 -7 -118 3 -254 6 -302 7 -50 0
-88 5 -88 11 0 15 560 4 585 -11z m83 -9 c-10 -2 -28 -2 -40 0 -13 2 -5 4 17
4 22 1 32 -1 23 -4z m4475 -10 c-160 -2 -426 -2 -590 0 -164 1 -32 2 292 2
325 0 459 -1 298 -2z m-5753 -20 c0 -5 -32 -8 -70 -8 -39 0 -70 3 -70 7 0 5
32 8 70 8 39 0 70 -3 70 -7z m1022 -4 c91 0 179 -4 195 -9 32 -10 -717 -13
-766 -4 -17 4 -28 11 -24 17 4 6 77 8 217 3 116 -4 286 -7 378 -7z m4651 -26
c-145 -2 -381 -2 -525 0 -145 1 -27 2 262 2 289 0 407 -1 263 -2z m1015 -10
c-43 -2 -113 -2 -155 0 -43 1 -8 3 77 3 85 0 120 -2 78 -3z m-6668 -14 c10 -7
-22 -8 -105 -3 -66 4 -122 8 -124 10 -10 9 216 3 229 -7z m1209 -3 c-8 -8
-934 -13 -980 -6 -24 4 187 8 470 9 283 0 512 -1 510 -3z m4776 -25 c101 -6
33 -8 -245 -5 -212 2 -486 5 -610 5 -134 1 -209 5 -185 9 50 10 849 2 1040 -9z
m613 -8 c-54 -2 -142 -2 -195 0 -54 1 -10 3 97 3 107 0 151 -2 98 -3z m-6661
-20 c-20 -2 -52 -2 -70 0 -17 2 0 4 38 4 39 0 53 -2 32 -4z m951 0 c-136 -2
-361 -2 -500 0 -139 1 -28 2 247 2 275 0 389 -1 253 -2z m4455 -9 c9 -3 17 -9
17 -14 0 -5 -55 -7 -126 -4 -205 10 -234 19 -63 21 85 1 162 0 172 -3z m415
-18 c3 -3 -82 -5 -189 -4 -172 2 -181 3 -79 7 133 7 259 5 268 -3z m87 4 c3
-6 -4 -10 -17 -10 -18 0 -20 2 -8 10 19 12 18 12 25 0z m285 0 c0 -5 -10 -10
-22 -9 -22 0 -22 1 -3 9 11 5 21 9 23 9 1 1 2 -3 2 -9z m485 -3 c33 -2 -22 -4
-122 -5 -101 -1 -183 1 -183 6 0 6 159 6 305 -1z m-582 -4 c-29 -2 -78 -2
-110 0 -32 2 -8 3 52 3 61 0 87 -1 58 -3z m-6555 -20 c-21 -2 -55 -2 -75 0
-21 2 -4 4 37 4 41 0 58 -2 38 -4z m314 0 c-50 -2 -134 -2 -185 0 -50 1 -9 3
93 3 102 0 143 -2 92 -3z m371 0 c-13 -2 -35 -2 -50 0 -16 2 -5 4 22 4 28 0
40 -2 28 -4z m685 0 c-120 -2 -316 -2 -435 0 -120 1 -22 2 217 2 239 0 337 -1
218 -2z m4555 -20 c-7 -2 -21 -2 -30 0 -10 3 -4 5 12 5 17 0 24 -2 18 -5z m95
0 c-10 -2 -26 -2 -35 0 -10 3 -2 5 17 5 19 0 27 -2 18 -5z m189 1 c-3 -3 -12
-4 -19 -1 -8 3 -5 6 6 6 11 1 17 -2 13 -5z m991 -1 c-10 -2 -28 -2 -40 0 -13
2 -5 4 17 4 22 1 32 -1 23 -4z"/>
<path d="M7208 7993 c23 -2 59 -2 80 0 20 2 1 4 -43 4 -44 0 -61 -2 -37 -4z"/>
<path d="M7423 7993 c9 -2 23 -2 30 0 6 3 -1 5 -18 5 -16 0 -22 -2 -12 -5z"/>
<path d="M7488 7993 c6 -2 18 -2 25 0 6 3 1 5 -13 5 -14 0 -19 -2 -12 -5z"/>
<path d="M7648 7993 c68 -2 176 -2 240 0 64 1 9 3 -123 3 -132 0 -185 -2 -117
-3z"/>
</g>
</svg>
